<svg xmlns="http://www.w3.org/2000/svg" width="458.4132080078125" height="1693.2803955078125" viewBox="-0.005568265914916992 -1743.2803955078125 458.4132080078125 1693.2803955078125"><title>Neo4j Graph Visualization</title><desc>Created using Neo4j (http://www.neo4j.com/)</desc><g class="layer links"><g class="link"><path fill="#DFE1E3" d="M 118.20814561140922 -1694.2570624963996 C 118.20814561140922 -1685.1725568055892 118.44426432687965 -1685.1725568055892 118.44426432687965 -1644.2570624963996 L 64.32623798204072 -1644.2570624963996 C 64.32623798204072 -1653.34156818721 64.09011926657028 -1653.34156818721 64.09011926657028 -1694.2570624963996 Z"/><text font-size="10" font-family="sans-serif" text-anchor="end" y="-1680.2570624963996" x="91.14913243898975">5,280 </text><text font-size="10" font-family="sans-serif" text-anchor="start" y="-1680.2570624963996" x="91.14913243898975">rows</text></g><g class="link"><path fill="#DFE1E3" d="M 116.85406151728533 -1595.2344277673287 C 116.85406151728533 -1586.1499220765184 117.35855709371285 -1586.1499220765184 117.35855709371285 -1545.2344277673287 L 66.42093636806257 -1545.2344277673287 C 66.42093636806257 -1554.318933458139 65.91644079163505 -1554.318933458139 65.91644079163505 -1595.2344277673287 Z"/><text font-size="10" font-family="sans-serif" text-anchor="end" y="-1581.2344277673287" x="91.38525115446019">3,129 </text><text font-size="10" font-family="sans-serif" text-anchor="start" y="-1581.2344277673287" x="91.38525115446019">rows</text></g><g class="link"><path fill="#DFE1E3" d="M 113.2603805500462 -1497.2701226011336 C 113.2603805500462 -1485.8750906384373 114.09563774167601 -1485.8750906384373 114.09563774167601 -1447.2701226011336 L 71.35437010335906 -1447.2701226011336 C 71.35437010335906 -1458.66515456383 70.51911291172922 -1458.66515456383 70.51911291172922 -1497.2701226011336 Z"/><text font-size="10" font-family="sans-serif" text-anchor="end" y="-1483.2701226011336" x="91.88974673088771">812 </text><text font-size="10" font-family="sans-serif" text-anchor="start" y="-1483.2701226011336" x="91.88974673088771">rows</text></g><g class="link"><path fill="#DFE1E3" d="M 114.0843990546681 -1400.0088849720485 C 114.0843990546681 -1388.6066982389873 115.33804584392877 -1388.6066982389873 115.33804584392877 -1350.0088849720485 L 72.61925557962768 -1350.0088849720485 C 72.61925557962768 -1361.4110717051096 71.36560879036699 -1361.4110717051096 71.36560879036699 -1400.0088849720485 Z"/><text font-size="10" font-family="sans-serif" text-anchor="end" y="-1386.0088849720485" x="92.72500392251754">809 </text><text font-size="10" font-family="sans-serif" text-anchor="start" y="-1386.0088849720485" x="92.72500392251754">rows</text></g><g class="link"><path fill="#DFE1E3" d="M 115.33429036306413 -1305.2673973280796 C 115.33429036306413 -1293.8628197816454 117.11095077047979 -1293.8628197816454 117.11095077047979 -1255.2673973280796 L 74.39967146790798 -1255.2673973280796 C 74.39967146790798 -1266.6719748745138 72.62301106049233 -1266.6719748745138 72.62301106049233 -1305.2673973280796 Z"/><text font-size="10" font-family="sans-serif" text-anchor="end" y="-1291.2673973280796" x="93.97865071177823">808 </text><text font-size="10" font-family="sans-serif" text-anchor="start" y="-1291.2673973280796" x="93.97865071177823">rows</text></g><g class="link"><path fill="#DFE1E3" d="M 106.88541733858942 -1210.528147162193 C 106.88541733858942 -1192.6137928500116 109.29662747915991 -1192.6137928500116 109.29662747915991 -1160.528147162193 L 87.03641504036884 -1160.528147162193 C 87.03641504036884 -1178.4425014743742 84.62520489979836 -1178.4425014743742 84.62520489979836 -1210.528147162193 Z"/><text font-size="10" font-family="sans-serif" text-anchor="end" y="-1196.528147162193" x="95.75531111919389">27 </text><text font-size="10" font-family="sans-serif" text-anchor="start" y="-1196.528147162193" x="95.75531111919389">rows</text></g><g class="link"><path fill="#DFE1E3" d="M 113.98742032935472 -1124.206004770906 C 113.98742032935472 -1109.277901935239 117.14814223632106 -1109.277901935239 117.14814223632106 -1074.206004770906 L 85.50634409714036 -1074.206004770906 C 85.50634409714036 -1089.134107606573 82.34562219017401 -1089.134107606573 82.34562219017401 -1124.206004770906 Z"/><text font-size="10" font-family="sans-serif" text-anchor="end" y="-1110.206004770906" x="98.16652125976437">130 </text><text font-size="10" font-family="sans-serif" text-anchor="start" y="-1110.206004770906" x="98.16652125976437">rows</text></g><g class="link"><path fill="#DFE1E3" d="M 115.15480555567436 -1038.562077307108 C 115.15480555567436 -1022.3649769275559 119.23476821437389 -1022.3649769275559 119.23476821437389 -988.5620773071081 L 91.57964343648658 -988.5620773071081 C 91.57964343648658 -1004.7591776866601 87.49968077778706 -1004.7591776866601 87.49968077778706 -1038.562077307108 Z"/><text font-size="10" font-family="sans-serif" text-anchor="end" y="-1024.562077307108" x="101.32724316673071">67 </text><text font-size="10" font-family="sans-serif" text-anchor="start" y="-1024.562077307108" x="101.32724316673071">rows</text></g><g class="link"><path fill="#DFE1E3" d="M 117.62162576472596 -955.2911697012228 C 117.62162576472596 -938.0671109425792 122.77506324978175 -938.0671109425792 122.77506324978175 -905.2911697012228 L 98.34622337119028 -905.2911697012228 C 98.34622337119028 -922.5152284598663 93.19278588613449 -922.5152284598663 93.19278588613449 -955.2911697012228 Z"/><text font-size="10" font-family="sans-serif" text-anchor="end" y="-941.2911697012228" x="105.40720582543022">39 </text><text font-size="10" font-family="sans-serif" text-anchor="start" y="-941.2911697012228" x="105.40720582543022">rows</text></g><g class="link"><path fill="#DFE1E3" d="M 116.45343334083815 -887.2911697012228 C 116.45343334083815 -858.53970305349 106.89822645645987 -858.53970305349 106.89822645645987 -837.2911697012228 L 95.1126463957556 -837.2911697012228 C 95.1126463957556 -866.0426363489555 104.66785328013388 -866.0426363489555 104.66785328013388 -887.2911697012228 Z"/><text font-size="10" font-family="sans-serif" text-anchor="end" y="-873.2911697012228" x="110.56064331048601">4 </text><text font-size="10" font-family="sans-serif" text-anchor="start" y="-873.2911697012228" x="110.56064331048601">rows</text></g><g class="link"><path fill="#DFE1E3" d="M 104.1126463957556 -819.2911697012228 C 104.1126463957556 -780.7576210178362 287.2533467253006 -780.7576210178362 287.2533467253006 -738.2678497272985 L 281.0389267860049 -738.2678497272985 C 281.0389267860049 -776.8013984106852 97.89822645645987 -776.8013984106852 97.89822645645987 -819.2911697012228 Z"/><text font-size="10" font-family="sans-serif" text-anchor="end" y="-805.2911697012228" x="101.00543642610774">1 </text><text font-size="10" font-family="sans-serif" text-anchor="start" y="-805.2911697012228" x="101.00543642610774">row</text></g><g class="link"><path fill="#DFE1E3" d="M 394.3119854845719 -788.2678497272985 C 394.3119854845719 -747.352355418109 341.37137307013955 -747.352355418109 341.37137307013955 -738.2678497272985 L 287.2533467253006 -738.2678497272985 C 287.2533467253006 -779.183344036488 340.193959139733 -779.183344036488 340.193959139733 -788.2678497272985 Z"/><text font-size="10" font-family="sans-serif" text-anchor="end" y="-774.2678497272985" x="367.25297231215245">5,280 </text><text font-size="10" font-family="sans-serif" text-anchor="start" y="-774.2678497272985" x="367.25297231215245">rows</text></g><g class="link"><path fill="#DFE1E3" d="M 338.26416310049166 -720.2678497272985 C 338.26416310049166 -679.352355418109 311.8607629190071 -679.352355418109 311.8607629190071 -670.2678497272985 L 257.74273657416813 -670.2678497272985 C 257.74273657416813 -711.183344036488 284.1461367556528 -711.183344036488 284.1461367556528 -720.2678497272985 Z"/><text font-size="10" font-family="sans-serif" text-anchor="end" y="-706.2678497272985" x="311.2051499280722">5,280 </text><text font-size="10" font-family="sans-serif" text-anchor="start" y="-706.2678497272985" x="311.2051499280722">rows</text></g><g class="link"><path fill="#DFE1E3" d="M 307.6755607924846 -618.3588846459119 C 307.6755607924846 -578.7969642646939 283.373479496447 -578.7969642646939 283.373479496447 -568.3588846459119 L 237.62585740465292 -568.3588846459119 C 237.62585740465292 -607.9208050271299 261.92793870069056 -607.9208050271299 261.92793870069056 -618.3588846459119 Z"/><text font-size="10" font-family="sans-serif" text-anchor="end" y="-604.3588846459119" x="284.8017497465876">1,332 </text><text font-size="10" font-family="sans-serif" text-anchor="start" y="-604.3588846459119" x="284.8017497465876">rows</text></g><g class="link"><path fill="#DFE1E3" d="M 287.48054762830117 -518.5963181463675 C 287.48054762830117 -477.68082383717797 265.65484217349353 -477.68082383717797 265.65484217349353 -468.5963181463675 L 211.69308381799118 -468.5963181463675 C 211.69308381799118 -509.511812455557 233.51878927279878 -509.511812455557 233.51878927279878 -518.5963181463675 Z"/><text font-size="10" font-family="sans-serif" text-anchor="end" y="-504.5963181463675" x="260.49966845054996">5,146 </text><text font-size="10" font-family="sans-serif" text-anchor="start" y="-504.5963181463675" x="260.49966845054996">rows</text></g><g class="link"><path fill="#DFE1E3" d="M 259.6963290417393 -417.80883105267105 C 259.6963290417393 -379.4255771658405 240.80571052903144 -379.4255771658405 240.80571052903144 -367.80883105267105 L 198.76097843703752 -367.80883105267105 C 198.76097843703752 -406.1920849395016 217.65159694974543 -406.1920849395016 217.65159694974543 -417.80883105267105 Z"/><text font-size="10" font-family="sans-serif" text-anchor="end" y="-403.80883105267105" x="238.6739629957424">724 </text><text font-size="10" font-family="sans-serif" text-anchor="start" y="-403.80883105267105" x="238.6739629957424">rows</text></g><g class="link"><path fill="#DFE1E3" d="M 240.19472733658432 -322 C 240.19472733658432 -284.00571009406553 224.64306192453398 -284.00571009406553 224.64306192453398 -272 L 183.8202962174343 -272 C 183.8202962174343 -309.99428990593447 199.37196162948464 -309.99428990593447 199.37196162948464 -322 Z"/><text font-size="10" font-family="sans-serif" text-anchor="end" y="-308" x="219.78334448303448">592 </text><text font-size="10" font-family="sans-serif" text-anchor="start" y="-308" x="219.78334448303448">rows</text></g><g class="link"><path fill="#DFE1E3" d="M 210.67873782366965 -254 C 210.67873782366965 -224.89567492442492 198.7858261711987 -224.89567492442492 198.7858261711987 -204 L 185.89170866582768 -204 C 185.89170866582768 -233.10432507557508 197.78462031829864 -233.10432507557508 197.78462031829864 -254 Z"/><text font-size="10" font-family="sans-serif" text-anchor="end" y="-240" x="204.23167907098414">5 </text><text font-size="10" font-family="sans-serif" text-anchor="start" y="-240" x="204.23167907098414">rows</text></g><g class="link"><path fill="#DFE1E3" d="M 198.7858261711987 -186 C 198.7858261711987 -156.89567492442492 190.774069139877 -156.89567492442492 190.774069139877 -136 L 177.879951634506 -136 C 177.879951634506 -165.10432507557508 185.89170866582768 -165.10432507557508 185.89170866582768 -186 Z"/><text font-size="10" font-family="sans-serif" text-anchor="end" y="-172" x="192.33876741851319">5 </text><text font-size="10" font-family="sans-serif" text-anchor="start" y="-172" x="192.33876741851319">rows</text></g><g class="link"><path fill="#DFE1E3" d="M 190.774069139877 -118 C 190.774069139877 -88.89567492442492 186.7637745780159 -88.89567492442492 186.7637745780159 -68 L 173.86965707264488 -68 C 173.86965707264488 -97.10432507557508 177.879951634506 -97.10432507557508 177.879951634506 -118 Z"/><text font-size="10" font-family="sans-serif" text-anchor="end" y="-104" x="184.3270103871915">5 </text><text font-size="10" font-family="sans-serif" text-anchor="start" y="-104" x="184.3270103871915">rows</text></g></g><g class="layer operators"><g class="operator" transform="translate(90.31671905517578,-68)"><rect class="background" fill="#ffffff" ry="4" rx="4" height="18" width="180"/><g class="header" pointer-events="all"><path class="banner" d="M 176 0 A 4 4 0 0 1 180 4 L 180 14 A 4 4 0 0 1 176 18 L 4 18 A 4 4 0 0 1 0 14 L 0 4 A 4 4 0 0 1 4 0 Z" style="fill: rgb(198, 219, 239);"/><text class="title" font-size="11" font-family="sans-serif" x="18" y="13" fill="#000000">Result</text></g><path class="cost" fill="#F25A29" d="M 176 18 A 4 4 0 0 1 176 18 L 4 18 A 4 4 0 0 1 4 18 Z"/><rect class="outline" stroke-width="1" fill="none" ry="4" rx="4" height="18" width="180" style="stroke: rgb(138, 153, 167);"/></g><g class="operator" transform="translate(94.32701110839844,-136)"><rect class="background" fill="#ffffff" ry="4" rx="4" height="18" width="180"/><g class="header" pointer-events="all"><path class="banner" d="M 176 0 A 4 4 0 0 1 180 4 L 180 14 A 4 4 0 0 1 176 18 L 4 18 A 4 4 0 0 1 0 14 L 0 4 A 4 4 0 0 1 4 0 Z" style="fill: rgb(198, 219, 239);"/><path class="expand" fill="#000000" d="M -5 -10 L 8.66 0 L -5 10 Z" transform="translate(9, 9) rotate(0) scale(0.5)"/><text class="title" font-size="11" font-family="sans-serif" x="18" y="13" fill="#000000">ProduceResults</text></g><path class="cost" fill="#F25A29" d="M 176 18 A 4 4 0 0 1 176 18 L 4 18 A 4 4 0 0 1 4 18 Z"/><rect class="outline" stroke-width="1" fill="none" ry="4" rx="4" height="18" width="180" style="stroke: rgb(138, 153, 167);"/></g><g class="operator" transform="translate(102.3387680053711,-204)"><rect class="background" fill="#ffffff" ry="4" rx="4" height="18" width="180"/><g class="header" pointer-events="all"><path class="banner" d="M 176 0 A 4 4 0 0 1 180 4 L 180 14 A 4 4 0 0 1 176 18 L 4 18 A 4 4 0 0 1 0 14 L 0 4 A 4 4 0 0 1 4 0 Z" style="fill: rgb(107, 174, 214);"/><path class="expand" fill="#FFFFFF" d="M -5 -10 L 8.66 0 L -5 10 Z" transform="translate(9, 9) rotate(0) scale(0.5)"/><text class="title" font-size="11" font-family="sans-serif" x="18" y="13" fill="#FFFFFF">Projection</text></g><path class="cost" fill="#F25A29" d="M 176 18 A 4 4 0 0 1 176 18 L 4 18 A 4 4 0 0 1 4 18 Z"/><rect class="outline" stroke-width="1" fill="none" ry="4" rx="4" height="18" width="180" style="stroke: rgb(74, 121, 149);"/></g><g class="operator" transform="translate(114.23168182373047,-272)"><rect class="background" fill="#ffffff" ry="4" rx="4" height="18" width="180"/><g class="header" pointer-events="all"><path class="banner" d="M 176 0 A 4 4 0 0 1 180 4 L 180 14 A 4 4 0 0 1 176 18 L 4 18 A 4 4 0 0 1 0 14 L 0 4 A 4 4 0 0 1 4 0 Z" style="fill: rgb(107, 174, 214);"/><path class="expand" fill="#FFFFFF" d="M -5 -10 L 8.66 0 L -5 10 Z" transform="translate(9, 9) rotate(0) scale(0.5)"/><text class="title" font-size="11" font-family="sans-serif" x="18" y="13" fill="#FFFFFF">Top</text></g><path class="cost" fill="#F25A29" d="M 176 18 A 4 4 0 0 1 176 18 L 4 18 A 4 4 0 0 1 4 18 Z"/><rect class="outline" stroke-width="1" fill="none" ry="4" rx="4" height="18" width="180" style="stroke: rgb(74, 121, 149);"/></g><g class="operator" transform="translate(129.78334045410156,-367.808837890625)"><rect class="background" fill="#ffffff" ry="4" rx="4" height="45.80883105267104" width="180"/><g class="header" pointer-events="all"><path class="banner" d="M 176 0 A 4 4 0 0 1 180 4 L 180 14 A 4 4 0 0 1 180 18 L 0 18 A 4 4 0 0 1 0 14 L 0 4 A 4 4 0 0 1 4 0 Z" style="fill: rgb(33, 113, 181);"/><path class="expand" fill="#FFFFFF" d="M -5 -10 L 8.66 0 L -5 10 Z" transform="translate(9, 9) rotate(0) scale(0.5)"/><text class="title" font-size="11" font-family="sans-serif" x="18" y="13" fill="#FFFFFF">Distinct</text></g><path class="cost" fill="#F25A29" d="M 0 18 L 180 18 L 180 41.80883105267104 A 4 4 0 0 1 176 45.80883105267104 L 4 45.80883105267104 A 4 4 0 0 1 0 41.80883105267104 Z"/><text class="cost" font-size="10" font-family="sans-serif" fill="white" x="90" text-anchor="end" y="32">2,172 </text><text class="cost" font-size="10" font-family="sans-serif" fill="white" x="90" text-anchor="start" y="32">db hits</text><rect class="outline" stroke-width="1" fill="none" ry="4" rx="4" height="45.80883105267104" width="180" style="stroke: rgb(23, 79, 126);"/></g><g class="operator" transform="translate(148.67396545410156,-468.5963134765625)"><rect class="background" fill="#ffffff" ry="4" rx="4" height="50.7874870936964" width="180"/><g class="header" pointer-events="all"><path class="banner" d="M 176 0 A 4 4 0 0 1 180 4 L 180 14 A 4 4 0 0 1 180 18 L 0 18 A 4 4 0 0 1 0 14 L 0 4 A 4 4 0 0 1 4 0 Z" style="fill: rgb(33, 113, 181);"/><path class="expand" fill="#FFFFFF" d="M -5 -10 L 8.66 0 L -5 10 Z" transform="translate(9, 9) rotate(0) scale(0.5)"/><text class="title" font-size="11" font-family="sans-serif" x="18" y="13" fill="#FFFFFF">Filter</text></g><path class="cost" fill="#F25A29" d="M 0 18 L 180 18 L 180 46.7874870936964 A 4 4 0 0 1 176 50.7874870936964 L 4 50.7874870936964 A 4 4 0 0 1 0 46.7874870936964 Z"/><text class="cost" font-size="10" font-family="sans-serif" fill="white" x="90" text-anchor="end" y="32">8,599 </text><text class="cost" font-size="10" font-family="sans-serif" fill="white" x="90" text-anchor="start" y="32">db hits</text><rect class="outline" stroke-width="1" fill="none" ry="4" rx="4" height="50.7874870936964" width="180" style="stroke: rgb(23, 79, 126);"/></g><g class="operator" transform="translate(170.49966430664062,-568.35888671875)"><rect class="background" fill="#ffffff" ry="4" rx="4" height="49.7625664995444" width="180"/><g class="header" pointer-events="all"><path class="banner" d="M 176 0 A 4 4 0 0 1 180 4 L 180 14 A 4 4 0 0 1 180 18 L 0 18 A 4 4 0 0 1 0 14 L 0 4 A 4 4 0 0 1 4 0 Z" style="fill: rgb(8, 81, 156);"/><path class="expand" fill="#FFFFFF" d="M -5 -10 L 8.66 0 L -5 10 Z" transform="translate(9, 9) rotate(0) scale(0.5)"/><text class="title" font-size="11" font-family="sans-serif" x="18" y="13" fill="#FFFFFF">Expand(All)</text></g><path class="cost" fill="#F25A29" d="M 0 18 L 180 18 L 180 45.7625664995444 A 4 4 0 0 1 176 49.7625664995444 L 4 49.7625664995444 A 4 4 0 0 1 0 45.7625664995444 Z"/><text class="cost" font-size="10" font-family="sans-serif" fill="white" x="90" text-anchor="end" y="32">6,478 </text><text class="cost" font-size="10" font-family="sans-serif" fill="white" x="90" text-anchor="start" y="32">db hits</text><rect class="outline" stroke-width="1" fill="none" ry="4" rx="4" height="49.7625664995444" width="180" style="stroke: rgb(5, 56, 109);"/></g><g class="operator" transform="translate(194.80174255371094,-670.267822265625)"><rect class="background" fill="#ffffff" ry="4" rx="4" height="51.908965081386654" width="180"/><g class="header" pointer-events="all"><path class="banner" d="M 176 0 A 4 4 0 0 1 180 4 L 180 14 A 4 4 0 0 1 180 18 L 0 18 A 4 4 0 0 1 0 14 L 0 4 A 4 4 0 0 1 4 0 Z" style="fill: rgb(33, 113, 181);"/><path class="expand" fill="#FFFFFF" d="M -5 -10 L 8.66 0 L -5 10 Z" transform="translate(9, 9) rotate(0) scale(0.5)"/><text class="title" font-size="11" font-family="sans-serif" x="18" y="13" fill="#FFFFFF">Filter</text></g><path class="cost" fill="#F25A29" d="M 0 18 L 180 18 L 180 47.908965081386654 A 4 4 0 0 1 176 51.908965081386654 L 4 51.908965081386654 A 4 4 0 0 1 0 47.908965081386654 Z"/><text class="cost" font-size="10" font-family="sans-serif" fill="white" x="90" text-anchor="end" y="32">11,723 </text><text class="cost" font-size="10" font-family="sans-serif" fill="white" x="90" text-anchor="start" y="32">db hits</text><rect class="outline" stroke-width="1" fill="none" ry="4" rx="4" height="51.908965081386654" width="180" style="stroke: rgb(23, 79, 126);"/></g><g class="operator" transform="translate(221.2051544189453,-738.267822265625)"><rect class="background" fill="#ffffff" ry="4" rx="4" height="18" width="180"/><g class="header" pointer-events="all"><path class="banner" d="M 176 0 A 4 4 0 0 1 180 4 L 180 14 A 4 4 0 0 1 176 18 L 4 18 A 4 4 0 0 1 0 14 L 0 4 A 4 4 0 0 1 4 0 Z" style="fill: rgb(33, 113, 181);"/><path class="expand" fill="#FFFFFF" d="M -5 -10 L 8.66 0 L -5 10 Z" transform="translate(9, 9) rotate(0) scale(0.5)"/><text class="title" font-size="11" font-family="sans-serif" x="18" y="13" fill="#FFFFFF">Apply</text></g><path class="cost" fill="#F25A29" d="M 176 18 A 4 4 0 0 1 176 18 L 4 18 A 4 4 0 0 1 4 18 Z"/><rect class="outline" stroke-width="1" fill="none" ry="4" rx="4" height="18" width="180" style="stroke: rgb(23, 79, 126);"/></g><g class="operator" transform="translate(11.005436897277832,-837.2911987304688)"><rect class="background" fill="#ffffff" ry="4" rx="4" height="18" width="180"/><g class="header" pointer-events="all"><path class="banner" d="M 176 0 A 4 4 0 0 1 180 4 L 180 14 A 4 4 0 0 1 176 18 L 4 18 A 4 4 0 0 1 0 14 L 0 4 A 4 4 0 0 1 4 0 Z" style="fill: rgb(8, 48, 107);"/><path class="expand" fill="#FFFFFF" d="M -5 -10 L 8.66 0 L -5 10 Z" transform="translate(9, 9) rotate(0) scale(0.5)"/><text class="title" font-size="11" font-family="sans-serif" x="18" y="13" fill="#FFFFFF">EagerAggregation</text></g><path class="cost" fill="#F25A29" d="M 176 18 A 4 4 0 0 1 176 18 L 4 18 A 4 4 0 0 1 4 18 Z"/><rect class="outline" stroke-width="1" fill="none" ry="4" rx="4" height="18" width="180" style="stroke: rgb(5, 33, 74);"/></g><g class="operator" transform="translate(20.560644149780273,-905.2911987304688)"><rect class="background" fill="#ffffff" ry="4" rx="4" height="18" width="180"/><g class="header" pointer-events="all"><path class="banner" d="M 176 0 A 4 4 0 0 1 180 4 L 180 14 A 4 4 0 0 1 176 18 L 4 18 A 4 4 0 0 1 0 14 L 0 4 A 4 4 0 0 1 4 0 Z" style="fill: rgb(107, 174, 214);"/><path class="expand" fill="#FFFFFF" d="M -5 -10 L 8.66 0 L -5 10 Z" transform="translate(9, 9) rotate(0) scale(0.5)"/><text class="title" font-size="11" font-family="sans-serif" x="18" y="13" fill="#FFFFFF">Top</text></g><path class="cost" fill="#F25A29" d="M 176 18 A 4 4 0 0 1 176 18 L 4 18 A 4 4 0 0 1 4 18 Z"/><rect class="outline" stroke-width="1" fill="none" ry="4" rx="4" height="18" width="180" style="stroke: rgb(74, 121, 149);"/></g><g class="operator" transform="translate(15.407205581665039,-988.5620727539062)"><rect class="background" fill="#ffffff" ry="4" rx="4" height="33.270907605885306" width="180"/><g class="header" pointer-events="all"><path class="banner" d="M 176 0 A 4 4 0 0 1 180 4 L 180 14 A 4 4 0 0 1 180 18 L 0 18 A 4 4 0 0 1 0 14 L 0 4 A 4 4 0 0 1 4 0 Z" style="fill: rgb(8, 48, 107);"/><path class="expand" fill="#FFFFFF" d="M -5 -10 L 8.66 0 L -5 10 Z" transform="translate(9, 9) rotate(0) scale(0.5)"/><text class="title" font-size="11" font-family="sans-serif" x="18" y="13" fill="#FFFFFF">EagerAggregation</text></g><path class="cost" fill="#F25A29" d="M 0 18 L 180 18 L 180 29.270907605885306 A 4 4 0 0 1 176 33.270907605885306 L 4 33.270907605885306 A 4 4 0 0 1 0 29.270907605885306 Z"/><rect class="outline" stroke-width="1" fill="none" ry="4" rx="4" height="33.270907605885306" width="180" style="stroke: rgb(5, 33, 74);"/></g><g class="operator" transform="translate(11.327242851257324,-1074.2060546875)"><rect class="background" fill="#ffffff" ry="4" rx="4" height="35.643927463798036" width="180"/><g class="header" pointer-events="all"><path class="banner" d="M 176 0 A 4 4 0 0 1 180 4 L 180 14 A 4 4 0 0 1 180 18 L 0 18 A 4 4 0 0 1 0 14 L 0 4 A 4 4 0 0 1 4 0 Z" style="fill: rgb(33, 113, 181);"/><path class="expand" fill="#FFFFFF" d="M -5 -10 L 8.66 0 L -5 10 Z" transform="translate(9, 9) rotate(0) scale(0.5)"/><text class="title" font-size="11" font-family="sans-serif" x="18" y="13" fill="#FFFFFF">Filter</text></g><path class="cost" fill="#F25A29" d="M 0 18 L 180 18 L 180 31.643927463798036 A 4 4 0 0 1 176 35.643927463798036 L 4 35.643927463798036 A 4 4 0 0 1 0 31.643927463798036 Z"/><text class="cost" font-size="10" font-family="sans-serif" fill="white" x="90" text-anchor="end" y="32">130 </text><text class="cost" font-size="10" font-family="sans-serif" fill="white" x="90" text-anchor="start" y="32">db hits</text><rect class="outline" stroke-width="1" fill="none" ry="4" rx="4" height="35.643927463798036" width="180" style="stroke: rgb(23, 79, 126);"/></g><g class="operator" transform="translate(8.166521072387695,-1160.5281982421875)"><rect class="background" fill="#ffffff" ry="4" rx="4" height="36.32214239128686" width="180"/><g class="header" pointer-events="all"><path class="banner" d="M 176 0 A 4 4 0 0 1 180 4 L 180 14 A 4 4 0 0 1 180 18 L 0 18 A 4 4 0 0 1 0 14 L 0 4 A 4 4 0 0 1 4 0 Z" style="fill: rgb(8, 81, 156);"/><path class="expand" fill="#FFFFFF" d="M -5 -10 L 8.66 0 L -5 10 Z" transform="translate(9, 9) rotate(0) scale(0.5)"/><text class="title" font-size="11" font-family="sans-serif" x="18" y="13" fill="#FFFFFF">Expand(All)</text></g><path class="cost" fill="#F25A29" d="M 0 18.000000000000004 L 180 18.000000000000004 L 180 32.32214239128686 A 4 4 0 0 1 176 36.32214239128686 L 4 36.32214239128686 A 4 4 0 0 1 0 32.32214239128686 Z"/><text class="cost" font-size="10" font-family="sans-serif" fill="white" x="90" text-anchor="end" y="32">157 </text><text class="cost" font-size="10" font-family="sans-serif" fill="white" x="90" text-anchor="start" y="32">db hits</text><rect class="outline" stroke-width="1" fill="none" ry="4" rx="4" height="36.32214239128686" width="180" style="stroke: rgb(5, 56, 109);"/></g><g class="operator" transform="translate(5.755311012268066,-1255.2674560546875)"><rect class="background" fill="#ffffff" ry="4" rx="4" height="44.73925016588668" width="180"/><g class="header" pointer-events="all"><path class="banner" d="M 176 0 A 4 4 0 0 1 180 4 L 180 14 A 4 4 0 0 1 180 18 L 0 18 A 4 4 0 0 1 0 14 L 0 4 A 4 4 0 0 1 4 0 Z" style="fill: rgb(33, 113, 181);"/><path class="expand" fill="#FFFFFF" d="M -5 -10 L 8.66 0 L -5 10 Z" transform="translate(9, 9) rotate(0) scale(0.5)"/><text class="title" font-size="11" font-family="sans-serif" x="18" y="13" fill="#FFFFFF">Filter</text></g><path class="cost" fill="#F25A29" d="M 0 18 L 180 18 L 180 40.73925016588668 A 4 4 0 0 1 176 44.73925016588668 L 4 44.73925016588668 A 4 4 0 0 1 0 40.73925016588668 Z"/><text class="cost" font-size="10" font-family="sans-serif" fill="white" x="90" text-anchor="end" y="32">1,616 </text><text class="cost" font-size="10" font-family="sans-serif" fill="white" x="90" text-anchor="start" y="32">db hits</text><rect class="outline" stroke-width="1" fill="none" ry="4" rx="4" height="44.73925016588668" width="180" style="stroke: rgb(23, 79, 126);"/></g><g class="operator" transform="translate(3.9786508083343506,-1350.0089111328125)"><rect class="background" fill="#ffffff" ry="4" rx="4" height="44.74148764396878" width="180"/><g class="header" pointer-events="all"><path class="banner" d="M 176 0 A 4 4 0 0 1 180 4 L 180 14 A 4 4 0 0 1 180 18 L 0 18 A 4 4 0 0 1 0 14 L 0 4 A 4 4 0 0 1 4 0 Z" style="fill: rgb(8, 81, 156);"/><path class="expand" fill="#FFFFFF" d="M -5 -10 L 8.66 0 L -5 10 Z" transform="translate(9, 9) rotate(0) scale(0.5)"/><text class="title" font-size="11" font-family="sans-serif" x="18" y="13" fill="#FFFFFF">Expand(All)</text></g><path class="cost" fill="#F25A29" d="M 0 18 L 180 18 L 180 40.74148764396878 A 4 4 0 0 1 176 44.74148764396878 L 4 44.74148764396878 A 4 4 0 0 1 0 40.74148764396878 Z"/><text class="cost" font-size="10" font-family="sans-serif" fill="white" x="90" text-anchor="end" y="32">1,617 </text><text class="cost" font-size="10" font-family="sans-serif" fill="white" x="90" text-anchor="start" y="32">db hits</text><rect class="outline" stroke-width="1" fill="none" ry="4" rx="4" height="44.74148764396878" width="180" style="stroke: rgb(5, 56, 109);"/></g><g class="operator" transform="translate(2.725003719329834,-1447.2701416015625)"><rect class="background" fill="#ffffff" ry="4" rx="4" height="47.26123762908511" width="180"/><g class="header" pointer-events="all"><path class="banner" d="M 176 0 A 4 4 0 0 1 180 4 L 180 14 A 4 4 0 0 1 180 18 L 0 18 A 4 4 0 0 1 0 14 L 0 4 A 4 4 0 0 1 4 0 Z" style="fill: rgb(33, 113, 181);"/><path class="expand" fill="#FFFFFF" d="M -5 -10 L 8.66 0 L -5 10 Z" transform="translate(9, 9) rotate(0) scale(0.5)"/><text class="title" font-size="11" font-family="sans-serif" x="18" y="13" fill="#FFFFFF">Filter</text></g><path class="cost" fill="#F25A29" d="M 0 18 L 180 18 L 180 43.26123762908511 A 4 4 0 0 1 176 47.26123762908511 L 4 47.26123762908511 A 4 4 0 0 1 0 43.26123762908511 Z"/><text class="cost" font-size="10" font-family="sans-serif" fill="white" x="90" text-anchor="end" y="32">3,245 </text><text class="cost" font-size="10" font-family="sans-serif" fill="white" x="90" text-anchor="start" y="32">db hits</text><rect class="outline" stroke-width="1" fill="none" ry="4" rx="4" height="47.26123762908511" width="180" style="stroke: rgb(23, 79, 126);"/></g><g class="operator" transform="translate(1.8897467851638794,-1545.234375)"><rect class="background" fill="#ffffff" ry="4" rx="4" height="47.9643051661952" width="180"/><g class="header" pointer-events="all"><path class="banner" d="M 176 0 A 4 4 0 0 1 180 4 L 180 14 A 4 4 0 0 1 180 18 L 0 18 A 4 4 0 0 1 0 14 L 0 4 A 4 4 0 0 1 4 0 Z" style="fill: rgb(8, 81, 156);"/><path class="expand" fill="#FFFFFF" d="M -5 -10 L 8.66 0 L -5 10 Z" transform="translate(9, 9) rotate(0) scale(0.5)"/><text class="title" font-size="11" font-family="sans-serif" x="18" y="13" fill="#FFFFFF">Expand(All)</text></g><path class="cost" fill="#F25A29" d="M 0 18 L 180 18 L 180 43.9643051661952 A 4 4 0 0 1 176 47.9643051661952 L 4 47.9643051661952 A 4 4 0 0 1 0 43.9643051661952 Z"/><text class="cost" font-size="10" font-family="sans-serif" fill="white" x="90" text-anchor="end" y="32">3,941 </text><text class="cost" font-size="10" font-family="sans-serif" fill="white" x="90" text-anchor="start" y="32">db hits</text><rect class="outline" stroke-width="1" fill="none" ry="4" rx="4" height="47.9643051661952" width="180" style="stroke: rgb(5, 56, 109);"/></g><g class="operator" transform="translate(1.3852511644363403,-1644.257080078125)"><rect class="background" fill="#ffffff" ry="4" rx="4" height="49.02263472907079" width="180"/><g class="header" pointer-events="all"><path class="banner" d="M 176 0 A 4 4 0 0 1 180 4 L 180 14 A 4 4 0 0 1 180 18 L 0 18 A 4 4 0 0 1 0 14 L 0 4 A 4 4 0 0 1 4 0 Z" style="fill: rgb(33, 113, 181);"/><path class="expand" fill="#FFFFFF" d="M -5 -10 L 8.66 0 L -5 10 Z" transform="translate(9, 9) rotate(0) scale(0.5)"/><text class="title" font-size="11" font-family="sans-serif" x="18" y="13" fill="#FFFFFF">Filter</text></g><path class="cost" fill="#F25A29" d="M 0 17.999999999999996 L 180 17.999999999999996 L 180 45.02263472907079 A 4 4 0 0 1 176 49.02263472907079 L 4 49.02263472907079 A 4 4 0 0 1 0 45.02263472907079 Z"/><text class="cost" font-size="10" font-family="sans-serif" fill="white" x="90" text-anchor="end" y="31.999999999999996">5,280 </text><text class="cost" font-size="10" font-family="sans-serif" fill="white" x="90" text-anchor="start" y="31.999999999999996">db hits</text><rect class="outline" stroke-width="1" fill="none" ry="4" rx="4" height="49.02263472907079" width="180" style="stroke: rgb(23, 79, 126);"/></g><g class="operator" transform="translate(1.149132490158081,-1743.2803955078125)"><rect class="background" fill="#ffffff" ry="4" rx="4" height="49.0233199739242" width="180"/><g class="header" pointer-events="all"><path class="banner" d="M 176 0 A 4 4 0 0 1 180 4 L 180 14 A 4 4 0 0 1 180 18 L 0 18 A 4 4 0 0 1 0 14 L 0 4 A 4 4 0 0 1 4 0 Z" style="fill: rgb(158, 202, 225);"/><path class="expand" fill="#000000" d="M -5 -10 L 8.66 0 L -5 10 Z" transform="translate(9, 9) rotate(0) scale(0.5)"/><text class="title" font-size="11" font-family="sans-serif" x="18" y="13" fill="#000000">NodeByLabelScan</text></g><path class="cost" fill="#F25A29" d="M 0 17.999999999999996 L 180 17.999999999999996 L 180 45.0233199739242 A 4 4 0 0 1 176 49.0233199739242 L 4 49.0233199739242 A 4 4 0 0 1 0 45.0233199739242 Z"/><text class="cost" font-size="10" font-family="sans-serif" fill="white" x="90" text-anchor="end" y="31.999999999999996">5,281 </text><text class="cost" font-size="10" font-family="sans-serif" fill="white" x="90" text-anchor="start" y="31.999999999999996">db hits</text><rect class="outline" stroke-width="1" fill="none" ry="4" rx="4" height="49.0233199739242" width="180" style="stroke: rgb(110, 141, 157);"/></g><g class="operator" transform="translate(277.2529602050781,-837.2911987304688)"><rect class="background" fill="#ffffff" ry="4" rx="4" height="49.0233199739242" width="180"/><g class="header" pointer-events="all"><path class="banner" d="M 176 0 A 4 4 0 0 1 180 4 L 180 14 A 4 4 0 0 1 180 18 L 0 18 A 4 4 0 0 1 0 14 L 0 4 A 4 4 0 0 1 4 0 Z" style="fill: rgb(158, 202, 225);"/><path class="expand" fill="#000000" d="M -5 -10 L 8.66 0 L -5 10 Z" transform="translate(9, 9) rotate(0) scale(0.5)"/><text class="title" font-size="11" font-family="sans-serif" x="18" y="13" fill="#000000">NodeByLabelScan</text></g><path class="cost" fill="#F25A29" d="M 0 17.999999999999996 L 180 17.999999999999996 L 180 45.0233199739242 A 4 4 0 0 1 176 49.0233199739242 L 4 49.0233199739242 A 4 4 0 0 1 0 45.0233199739242 Z"/><text class="cost" font-size="10" font-family="sans-serif" fill="white" x="90" text-anchor="end" y="31.999999999999996">5,281 </text><text class="cost" font-size="10" font-family="sans-serif" fill="white" x="90" text-anchor="start" y="31.999999999999996">db hits</text><rect class="outline" stroke-width="1" fill="none" ry="4" rx="4" height="49.0233199739242" width="180" style="stroke: rgb(110, 141, 157);"/></g></g></svg>