<svg xmlns="http://www.w3.org/2000/svg" width="182.3094024658203" height="1640.3714599609375" viewBox="-1.154700756072998 -1690.3714599609375 182.3094024658203 1640.3714599609375"><title>Neo4j Graph Visualization</title><desc>Created using Neo4j (http://www.neo4j.com/)</desc><g class="layer links"><g class="link"><path fill="#DFE1E3" d="M 108.21574741431462 -1651.8639254689947 C 108.21574741431462 -1638.460430441401 108.21574741431462 -1638.460430441401 108.21574741431462 -1601.8639254689947 L 71.78425258568538 -1601.8639254689947 C 71.78425258568538 -1615.2674204965883 71.78425258568538 -1615.2674204965883 71.78425258568538 -1651.8639254689947 Z"/><text font-size="10" font-family="sans-serif" text-anchor="end" y="-1637.8639254689947" x="90">287 </text><text font-size="10" font-family="sans-serif" text-anchor="start" y="-1637.8639254689947" x="90">rows</text></g><g class="link"><path fill="#DFE1E3" d="M 93.10720996964787 -1563.368988071001 C 93.10720996964787 -1540.3470993745766 93.10720996964787 -1540.3470993745766 93.10720996964787 -1513.368988071001 L 86.89279003035213 -1513.368988071001 C 86.89279003035213 -1536.3908767674254 86.89279003035213 -1536.3908767674254 86.89279003035213 -1563.368988071001 Z"/><text font-size="10" font-family="sans-serif" text-anchor="end" y="-1549.368988071001" x="90">1 </text><text font-size="10" font-family="sans-serif" text-anchor="start" y="-1549.368988071001" x="90">row</text></g><g class="link"><path fill="#DFE1E3" d="M 110.8807426611973 -1471.6962111159025 C 110.8807426611973 -1459.98930475574 110.8807426611973 -1459.98930475574 110.8807426611973 -1421.6962111159025 L 69.1192573388027 -1421.6962111159025 C 69.1192573388027 -1433.403117476065 69.1192573388027 -1433.403117476065 69.1192573388027 -1471.6962111159025 Z"/><text font-size="10" font-family="sans-serif" text-anchor="end" y="-1457.6962111159025" x="90">691 </text><text font-size="10" font-family="sans-serif" text-anchor="start" y="-1457.6962111159025" x="90">rows</text></g><g class="link"><path fill="#DFE1E3" d="M 112 -1377.522692948325 C 112 -1366.5283279404116 112 -1366.5283279404116 112 -1327.522692948325 L 68 -1327.522692948325 C 68 -1338.5170579562382 68 -1338.5170579562382 68 -1377.522692948325 Z"/><text font-size="10" font-family="sans-serif" text-anchor="end" y="-1363.522692948325" x="90">999 </text><text font-size="10" font-family="sans-serif" text-anchor="start" y="-1363.522692948325" x="90">rows</text></g><g class="link"><path fill="#DFE1E3" d="M 105.3172608515066 -1287.6709094236057 C 105.3172608515066 -1272.4221805401867 105.3172608515066 -1272.4221805401867 105.3172608515066 -1237.6709094236057 L 74.6827391484934 -1237.6709094236057 C 74.6827391484934 -1252.9196383070248 74.6827391484934 -1252.9196383070248 74.6827391484934 -1287.6709094236057 Z"/><text font-size="10" font-family="sans-serif" text-anchor="end" y="-1273.6709094236057" x="90">110 </text><text font-size="10" font-family="sans-serif" text-anchor="start" y="-1273.6709094236057" x="90">rows</text></g><g class="link"><path fill="#DFE1E3" d="M 107.41074591579577 -1202.6265512670502 C 107.41074591579577 -1188.7105763687139 107.41074591579577 -1188.7105763687139 107.41074591579577 -1152.6265512670502 L 72.58925408420423 -1152.6265512670502 C 72.58925408420423 -1166.5425261653866 72.58925408420423 -1166.5425261653866 72.58925408420423 -1202.6265512670502 Z"/><text font-size="10" font-family="sans-serif" text-anchor="end" y="-1188.6265512670502" x="90">220 </text><text font-size="10" font-family="sans-serif" text-anchor="start" y="-1188.6265512670502" x="90">rows</text></g><g class="link"><path fill="#DFE1E3" d="M 111.32922057798915 -1109.9599276143135 C 111.32922057798915 -1098.538531163451 111.32922057798915 -1098.538531163451 111.32922057798915 -1059.9599276143133 L 68.67077942201085 -1059.9599276143133 C 68.67077942201085 -1071.3813240651762 68.67077942201085 -1071.3813240651762 68.67077942201085 -1109.9599276143135 Z"/><text font-size="10" font-family="sans-serif" text-anchor="end" y="-1095.9599276143135" x="90">801 </text><text font-size="10" font-family="sans-serif" text-anchor="start" y="-1095.9599276143135" x="90">rows</text></g><g class="link"><path fill="#DFE1E3" d="M 108.63879595643003 -1017.7584745452787 C 108.63879595643003 -1004.624300584267 108.63879595643003 -1004.624300584267 108.63879595643003 -967.7584745452787 L 71.36120404356997 -967.7584745452787 C 71.36120404356997 -980.8926485062904 71.36120404356997 -980.8926485062904 71.36120404356997 -1017.7584745452787 Z"/><text font-size="10" font-family="sans-serif" text-anchor="end" y="-1003.7584745452787" x="90">330 </text><text font-size="10" font-family="sans-serif" text-anchor="start" y="-1003.7584745452787" x="90">rows</text></g><g class="link"><path fill="#DFE1E3" d="M 103.78252361890578 -949.7584745452787 C 103.78252361890578 -933.5327015941973 103.78252361890578 -933.5327015941973 103.78252361890578 -899.7584745452787 L 76.21747638109422 -899.7584745452787 C 76.21747638109422 -915.98424749636 76.21747638109422 -915.98424749636 76.21747638109422 -949.7584745452787 Z"/><text font-size="10" font-family="sans-serif" text-anchor="end" y="-935.7584745452787" x="90">66 </text><text font-size="10" font-family="sans-serif" text-anchor="start" y="-935.7584745452787" x="90">rows</text></g><g class="link"><path fill="#DFE1E3" d="M 93.10720996964787 -881.7584745452787 C 93.10720996964787 -858.7365858488541 93.10720996964787 -858.7365858488541 93.10720996964787 -831.7584745452787 L 86.89279003035213 -831.7584745452787 C 86.89279003035213 -854.7803632417032 86.89279003035213 -854.7803632417032 86.89279003035213 -881.7584745452787 Z"/><text font-size="10" font-family="sans-serif" text-anchor="end" y="-867.7584745452787" x="90">1 </text><text font-size="10" font-family="sans-serif" text-anchor="start" y="-867.7584745452787" x="90">row</text></g><g class="link"><path fill="#DFE1E3" d="M 103.34399595494057 -799.0013744482608 C 103.34399595494057 -782.496426115569 103.34399595494055 -782.496426115569 103.34399595494055 -749.0013744482608 L 76.65600404505943 -749.0013744482608 C 76.65600404505943 -765.5063227809526 76.65600404505943 -765.5063227809526 76.65600404505943 -799.0013744482608 Z"/><text font-size="10" font-family="sans-serif" text-anchor="end" y="-785.0013744482608" x="90">57 </text><text font-size="10" font-family="sans-serif" text-anchor="start" y="-785.0013744482608" x="90">rows</text></g><g class="link"><path fill="#DFE1E3" d="M 103.34399595494057 -716.3061411685696 C 103.34399595494057 -699.8011928358778 103.34399595494055 -699.8011928358778 103.34399595494055 -666.3061411685696 L 76.65600404505943 -666.3061411685696 C 76.65600404505943 -682.8110895012614 76.65600404505943 -682.8110895012614 76.65600404505943 -716.3061411685696 Z"/><text font-size="10" font-family="sans-serif" text-anchor="end" y="-702.3061411685696" x="90">57 </text><text font-size="10" font-family="sans-serif" text-anchor="start" y="-702.3061411685696" x="90">rows</text></g><g class="link"><path fill="#DFE1E3" d="M 101.13010621939553 -632.2276501209506 C 101.13010621939553 -614.3132958087691 101.13010621939554 -614.3132958087691 101.13010621939554 -582.2276501209506 L 78.86989378060447 -582.2276501209506 C 78.86989378060447 -600.142004433132 78.86989378060447 -600.142004433132 78.86989378060447 -632.2276501209506 Z"/><text font-size="10" font-family="sans-serif" text-anchor="end" y="-618.2276501209506" x="90">27 </text><text font-size="10" font-family="sans-serif" text-anchor="start" y="-618.2276501209506" x="90">rows</text></g><g class="link"><path fill="#DFE1E3" d="M 104.39669696668602 -549.7246277084985 C 104.39669696668602 -533.8898496542752 104.39669696668602 -533.8898496542752 104.39669696668602 -499.7246277084986 L 75.60330303331398 -499.7246277084986 C 75.60330303331398 -515.5594057627218 75.60330303331398 -515.5594057627218 75.60330303331398 -549.7246277084985 Z"/><text font-size="10" font-family="sans-serif" text-anchor="end" y="-535.7246277084985" x="90">81 </text><text font-size="10" font-family="sans-serif" text-anchor="start" y="-535.7246277084985" x="90">rows</text></g><g class="link"><path fill="#DFE1E3" d="M 98 -468.65628000794027 C 98 -448.7492381868809 98 -448.7492381868809 98 -418.65628000794027 L 82 -418.65628000794027 C 82 -438.5633218289996 82 -438.5633218289996 82 -468.65628000794027 Z"/><text font-size="10" font-family="sans-serif" text-anchor="end" y="-454.65628000794027" x="90">9 </text><text font-size="10" font-family="sans-serif" text-anchor="start" y="-454.65628000794027" x="90">rows</text></g><g class="link"><path fill="#DFE1E3" d="M 99.9512752066698 -400.65628000794027 C 99.9512752066698 -381.99145856477753 99.9512752066698 -381.99145856477753 99.9512752066698 -350.65628000794027 L 80.0487247933302 -350.65628000794027 C 80.0487247933302 -369.321101451103 80.0487247933302 -369.321101451103 80.0487247933302 -400.65628000794027 Z"/><text font-size="10" font-family="sans-serif" text-anchor="end" y="-386.65628000794027" x="90">18 </text><text font-size="10" font-family="sans-serif" text-anchor="start" y="-386.65628000794027" x="90">rows</text></g><g class="link"><path fill="#DFE1E3" d="M 98 -322 C 98 -302.09295817894065 98 -302.09295817894065 98 -272 L 82 -272 C 82 -291.90704182105935 82 -291.90704182105935 82 -322 Z"/><text font-size="10" font-family="sans-serif" text-anchor="end" y="-308" x="90">9 </text><text font-size="10" font-family="sans-serif" text-anchor="start" y="-308" x="90">rows</text></g><g class="link"><path fill="#DFE1E3" d="M 98 -254 C 98 -234.09295817894065 98 -234.09295817894065 98 -204 L 82 -204 C 82 -223.90704182105935 82 -223.90704182105935 82 -254 Z"/><text font-size="10" font-family="sans-serif" text-anchor="end" y="-240" x="90">9 </text><text font-size="10" font-family="sans-serif" text-anchor="start" y="-240" x="90">rows</text></g><g class="link"><path fill="#DFE1E3" d="M 98 -186 C 98 -166.09295817894065 98 -166.09295817894065 98 -136 L 82 -136 C 82 -155.90704182105935 82 -155.90704182105935 82 -186 Z"/><text font-size="10" font-family="sans-serif" text-anchor="end" y="-172" x="90">9 </text><text font-size="10" font-family="sans-serif" text-anchor="start" y="-172" x="90">rows</text></g><g class="link"><path fill="#DFE1E3" d="M 98 -118 C 98 -98.09295817894065 98 -98.09295817894065 98 -68 L 82 -68 C 82 -87.90704182105935 82 -87.90704182105935 82 -118 Z"/><text font-size="10" font-family="sans-serif" text-anchor="end" y="-104" x="90">9 </text><text font-size="10" font-family="sans-serif" text-anchor="start" y="-104" x="90">rows</text></g></g><g class="layer operators"><g class="operator" transform="translate(0,-68)"><rect class="background" fill="#ffffff" ry="4" rx="4" height="18" width="180"/><g class="header" pointer-events="all"><path class="banner" d="M 176 0 A 4 4 0 0 1 180 4 L 180 14 A 4 4 0 0 1 176 18 L 4 18 A 4 4 0 0 1 0 14 L 0 4 A 4 4 0 0 1 4 0 Z" style="fill: rgb(198, 219, 239);"/><text class="title" font-size="11" font-family="sans-serif" x="18" y="13" fill="#000000">Result</text></g><path class="cost" fill="#F25A29" d="M 176 18 A 4 4 0 0 1 176 18 L 4 18 A 4 4 0 0 1 4 18 Z"/><rect class="outline" stroke-width="1" fill="none" ry="4" rx="4" height="18" width="180" style="stroke: rgb(138, 153, 167);"/></g><g class="operator" transform="translate(0,-136)"><rect class="background" fill="#ffffff" ry="4" rx="4" height="18" width="180"/><g class="header" pointer-events="all"><path class="banner" d="M 176 0 A 4 4 0 0 1 180 4 L 180 14 A 4 4 0 0 1 176 18 L 4 18 A 4 4 0 0 1 0 14 L 0 4 A 4 4 0 0 1 4 0 Z" style="fill: rgb(198, 219, 239);"/><path class="expand" fill="#000000" d="M -5 -10 L 8.66 0 L -5 10 Z" transform="translate(9, 9) rotate(0) scale(0.5)"/><text class="title" font-size="11" font-family="sans-serif" x="18" y="13" fill="#000000">ProduceResults</text></g><path class="cost" fill="#F25A29" d="M 176 18 A 4 4 0 0 1 176 18 L 4 18 A 4 4 0 0 1 4 18 Z"/><rect class="outline" stroke-width="1" fill="none" ry="4" rx="4" height="18" width="180" style="stroke: rgb(138, 153, 167);"/></g><g class="operator" transform="translate(0,-204)"><rect class="background" fill="#ffffff" ry="4" rx="4" height="18" width="180"/><g class="header" pointer-events="all"><path class="banner" d="M 176 0 A 4 4 0 0 1 180 4 L 180 14 A 4 4 0 0 1 176 18 L 4 18 A 4 4 0 0 1 0 14 L 0 4 A 4 4 0 0 1 4 0 Z" style="fill: rgb(107, 174, 214);"/><path class="expand" fill="#FFFFFF" d="M -5 -10 L 8.66 0 L -5 10 Z" transform="translate(9, 9) rotate(0) scale(0.5)"/><text class="title" font-size="11" font-family="sans-serif" x="18" y="13" fill="#FFFFFF">Projection</text></g><path class="cost" fill="#F25A29" d="M 176 18 A 4 4 0 0 1 176 18 L 4 18 A 4 4 0 0 1 4 18 Z"/><rect class="outline" stroke-width="1" fill="none" ry="4" rx="4" height="18" width="180" style="stroke: rgb(74, 121, 149);"/></g><g class="operator" transform="translate(0,-272)"><rect class="background" fill="#ffffff" ry="4" rx="4" height="18" width="180"/><g class="header" pointer-events="all"><path class="banner" d="M 176 0 A 4 4 0 0 1 180 4 L 180 14 A 4 4 0 0 1 176 18 L 4 18 A 4 4 0 0 1 0 14 L 0 4 A 4 4 0 0 1 4 0 Z" style="fill: rgb(107, 174, 214);"/><path class="expand" fill="#FFFFFF" d="M -5 -10 L 8.66 0 L -5 10 Z" transform="translate(9, 9) rotate(0) scale(0.5)"/><text class="title" font-size="11" font-family="sans-serif" x="18" y="13" fill="#FFFFFF">Sort</text></g><path class="cost" fill="#F25A29" d="M 176 18 A 4 4 0 0 1 176 18 L 4 18 A 4 4 0 0 1 4 18 Z"/><rect class="outline" stroke-width="1" fill="none" ry="4" rx="4" height="18" width="180" style="stroke: rgb(74, 121, 149);"/></g><g class="operator" transform="translate(0,-350.6562805175781)"><rect class="background" fill="#ffffff" ry="4" rx="4" height="28.65628000794024" width="180"/><g class="header" pointer-events="all"><path class="banner" d="M 176 0 A 4 4 0 0 1 180 4 L 180 14 A 4 4 0 0 1 180 18 L 0 18 A 4 4 0 0 1 0 14 L 0 4 A 4 4 0 0 1 4 0 Z" style="fill: rgb(107, 174, 214);"/><path class="expand" fill="#FFFFFF" d="M -5 -10 L 8.66 0 L -5 10 Z" transform="translate(9, 9) rotate(0) scale(0.5)"/><text class="title" font-size="11" font-family="sans-serif" x="18" y="13" fill="#FFFFFF">Projection</text></g><path class="cost" fill="#F25A29" d="M 0 18 L 180 18 L 180 24.65628000794024 A 4 4 0 0 1 176 28.65628000794024 L 4 28.65628000794024 A 4 4 0 0 1 0 24.65628000794024 Z"/><rect class="outline" stroke-width="1" fill="none" ry="4" rx="4" height="28.65628000794024" width="180" style="stroke: rgb(74, 121, 149);"/></g><g class="operator" transform="translate(0,-418.6562805175781)"><rect class="background" fill="#ffffff" ry="4" rx="4" height="18" width="180"/><g class="header" pointer-events="all"><path class="banner" d="M 176 0 A 4 4 0 0 1 180 4 L 180 14 A 4 4 0 0 1 176 18 L 4 18 A 4 4 0 0 1 0 14 L 0 4 A 4 4 0 0 1 4 0 Z" style="fill: rgb(33, 113, 181);"/><path class="expand" fill="#FFFFFF" d="M -5 -10 L 8.66 0 L -5 10 Z" transform="translate(9, 9) rotate(0) scale(0.5)"/><text class="title" font-size="11" font-family="sans-serif" x="18" y="13" fill="#FFFFFF">Filter</text></g><path class="cost" fill="#F25A29" d="M 176 18 A 4 4 0 0 1 176 18 L 4 18 A 4 4 0 0 1 4 18 Z"/><rect class="outline" stroke-width="1" fill="none" ry="4" rx="4" height="18" width="180" style="stroke: rgb(23, 79, 126);"/></g><g class="operator" transform="translate(0,-499.7246398925781)"><rect class="background" fill="#ffffff" ry="4" rx="4" height="31.06834770055829" width="180"/><g class="header" pointer-events="all"><path class="banner" d="M 176 0 A 4 4 0 0 1 180 4 L 180 14 A 4 4 0 0 1 180 18 L 0 18 A 4 4 0 0 1 0 14 L 0 4 A 4 4 0 0 1 4 0 Z" style="fill: rgb(8, 81, 156);"/><path class="expand" fill="#FFFFFF" d="M -5 -10 L 8.66 0 L -5 10 Z" transform="translate(9, 9) rotate(0) scale(0.5)"/><text class="title" font-size="11" font-family="sans-serif" x="18" y="13" fill="#FFFFFF">Expand(Into)</text></g><path class="cost" fill="#F25A29" d="M 0 18 L 180 18 L 180 27.06834770055829 A 4 4 0 0 1 176 31.06834770055829 L 4 31.06834770055829 A 4 4 0 0 1 0 27.06834770055829 Z"/><rect class="outline" stroke-width="1" fill="none" ry="4" rx="4" height="31.06834770055829" width="180" style="stroke: rgb(5, 56, 109);"/></g><g class="operator" transform="translate(0,-582.2276611328125)"><rect class="background" fill="#ffffff" ry="4" rx="4" height="32.50302241245203" width="180"/><g class="header" pointer-events="all"><path class="banner" d="M 176 0 A 4 4 0 0 1 180 4 L 180 14 A 4 4 0 0 1 180 18 L 0 18 A 4 4 0 0 1 0 14 L 0 4 A 4 4 0 0 1 4 0 Z" style="fill: rgb(33, 113, 181);"/><path class="expand" fill="#FFFFFF" d="M -5 -10 L 8.66 0 L -5 10 Z" transform="translate(9, 9) rotate(0) scale(0.5)"/><text class="title" font-size="11" font-family="sans-serif" x="18" y="13" fill="#FFFFFF">Filter</text></g><path class="cost" fill="#F25A29" d="M 0 18 L 180 18 L 180 28.503022412452033 A 4 4 0 0 1 176 32.50302241245203 L 4 32.50302241245203 A 4 4 0 0 1 0 28.503022412452033 Z"/><rect class="outline" stroke-width="1" fill="none" ry="4" rx="4" height="32.50302241245203" width="180" style="stroke: rgb(23, 79, 126);"/></g><g class="operator" transform="translate(0,-666.30615234375)"><rect class="background" fill="#ffffff" ry="4" rx="4" height="34.07849104761911" width="180"/><g class="header" pointer-events="all"><path class="banner" d="M 176 0 A 4 4 0 0 1 180 4 L 180 14 A 4 4 0 0 1 180 18 L 0 18 A 4 4 0 0 1 0 14 L 0 4 A 4 4 0 0 1 4 0 Z" style="fill: rgb(8, 81, 156);"/><path class="expand" fill="#FFFFFF" d="M -5 -10 L 8.66 0 L -5 10 Z" transform="translate(9, 9) rotate(0) scale(0.5)"/><text class="title" font-size="11" font-family="sans-serif" x="18" y="13" fill="#FFFFFF">Expand(All)</text></g><path class="cost" fill="#F25A29" d="M 0 18 L 180 18 L 180 30.07849104761911 A 4 4 0 0 1 176 34.07849104761911 L 4 34.07849104761911 A 4 4 0 0 1 0 30.07849104761911 Z"/><rect class="outline" stroke-width="1" fill="none" ry="4" rx="4" height="34.07849104761911" width="180" style="stroke: rgb(5, 56, 109);"/></g><g class="operator" transform="translate(0,-749.0014038085938)"><rect class="background" fill="#ffffff" ry="4" rx="4" height="32.695233279691145" width="180"/><g class="header" pointer-events="all"><path class="banner" d="M 176 0 A 4 4 0 0 1 180 4 L 180 14 A 4 4 0 0 1 180 18 L 0 18 A 4 4 0 0 1 0 14 L 0 4 A 4 4 0 0 1 4 0 Z" style="fill: rgb(33, 113, 181);"/><path class="expand" fill="#FFFFFF" d="M -5 -10 L 8.66 0 L -5 10 Z" transform="translate(9, 9) rotate(0) scale(0.5)"/><text class="title" font-size="11" font-family="sans-serif" x="18" y="13" fill="#FFFFFF">Filter</text></g><path class="cost" fill="#F25A29" d="M 0 18 L 180 18 L 180 28.695233279691145 A 4 4 0 0 1 176 32.695233279691145 L 4 32.695233279691145 A 4 4 0 0 1 0 28.695233279691145 Z"/><rect class="outline" stroke-width="1" fill="none" ry="4" rx="4" height="32.695233279691145" width="180" style="stroke: rgb(23, 79, 126);"/></g><g class="operator" transform="translate(0,-831.7584838867188)"><rect class="background" fill="#ffffff" ry="4" rx="4" height="32.75710009701787" width="180"/><g class="header" pointer-events="all"><path class="banner" d="M 176 0 A 4 4 0 0 1 180 4 L 180 14 A 4 4 0 0 1 180 18 L 0 18 A 4 4 0 0 1 0 14 L 0 4 A 4 4 0 0 1 4 0 Z" style="fill: rgb(8, 81, 156);"/><path class="expand" fill="#FFFFFF" d="M -5 -10 L 8.66 0 L -5 10 Z" transform="translate(9, 9) rotate(0) scale(0.5)"/><text class="title" font-size="11" font-family="sans-serif" x="18" y="13" fill="#FFFFFF">Expand(All)</text></g><path class="cost" fill="#F25A29" d="M 0 18 L 180 18 L 180 28.75710009701787 A 4 4 0 0 1 176 32.75710009701787 L 4 32.75710009701787 A 4 4 0 0 1 0 28.75710009701787 Z"/><rect class="outline" stroke-width="1" fill="none" ry="4" rx="4" height="32.75710009701787" width="180" style="stroke: rgb(5, 56, 109);"/></g><g class="operator" transform="translate(0,-899.7584838867188)"><rect class="background" fill="#ffffff" ry="4" rx="4" height="18" width="180"/><g class="header" pointer-events="all"><path class="banner" d="M 176 0 A 4 4 0 0 1 180 4 L 180 14 A 4 4 0 0 1 176 18 L 4 18 A 4 4 0 0 1 0 14 L 0 4 A 4 4 0 0 1 4 0 Z" style="fill: rgb(107, 174, 214);"/><path class="expand" fill="#FFFFFF" d="M -5 -10 L 8.66 0 L -5 10 Z" transform="translate(9, 9) rotate(0) scale(0.5)"/><text class="title" font-size="11" font-family="sans-serif" x="18" y="13" fill="#FFFFFF">Top</text></g><path class="cost" fill="#F25A29" d="M 176 18 A 4 4 0 0 1 176 18 L 4 18 A 4 4 0 0 1 4 18 Z"/><rect class="outline" stroke-width="1" fill="none" ry="4" rx="4" height="18" width="180" style="stroke: rgb(74, 121, 149);"/></g><g class="operator" transform="translate(0,-967.7584838867188)"><rect class="background" fill="#ffffff" ry="4" rx="4" height="18" width="180"/><g class="header" pointer-events="all"><path class="banner" d="M 176 0 A 4 4 0 0 1 180 4 L 180 14 A 4 4 0 0 1 176 18 L 4 18 A 4 4 0 0 1 0 14 L 0 4 A 4 4 0 0 1 4 0 Z" style="fill: rgb(8, 48, 107);"/><path class="expand" fill="#FFFFFF" d="M -5 -10 L 8.66 0 L -5 10 Z" transform="translate(9, 9) rotate(0) scale(0.5)"/><text class="title" font-size="11" font-family="sans-serif" x="18" y="13" fill="#FFFFFF">EagerAggregation</text></g><path class="cost" fill="#F25A29" d="M 176 18 A 4 4 0 0 1 176 18 L 4 18 A 4 4 0 0 1 4 18 Z"/><rect class="outline" stroke-width="1" fill="none" ry="4" rx="4" height="18" width="180" style="stroke: rgb(5, 33, 74);"/></g><g class="operator" transform="translate(0,-1059.9599609375)"><rect class="background" fill="#ffffff" ry="4" rx="4" height="42.2014530690347" width="180"/><g class="header" pointer-events="all"><path class="banner" d="M 176 0 A 4 4 0 0 1 180 4 L 180 14 A 4 4 0 0 1 180 18 L 0 18 A 4 4 0 0 1 0 14 L 0 4 A 4 4 0 0 1 4 0 Z" style="fill: rgb(33, 113, 181);"/><path class="expand" fill="#FFFFFF" d="M -5 -10 L 8.66 0 L -5 10 Z" transform="translate(9, 9) rotate(0) scale(0.5)"/><text class="title" font-size="11" font-family="sans-serif" x="18" y="13" fill="#FFFFFF">Filter</text></g><path class="cost" fill="#F25A29" d="M 0 18 L 180 18 L 180 38.2014530690347 A 4 4 0 0 1 176 42.2014530690347 L 4 42.2014530690347 A 4 4 0 0 1 0 38.2014530690347 Z"/><text class="cost" font-size="10" font-family="sans-serif" fill="white" x="90" text-anchor="end" y="32">801 </text><text class="cost" font-size="10" font-family="sans-serif" fill="white" x="90" text-anchor="start" y="32">db hits</text><rect class="outline" stroke-width="1" fill="none" ry="4" rx="4" height="42.2014530690347" width="180" style="stroke: rgb(23, 79, 126);"/></g><g class="operator" transform="translate(0,-1152.6265869140625)"><rect class="background" fill="#ffffff" ry="4" rx="4" height="42.6666236527368" width="180"/><g class="header" pointer-events="all"><path class="banner" d="M 176 0 A 4 4 0 0 1 180 4 L 180 14 A 4 4 0 0 1 180 18 L 0 18 A 4 4 0 0 1 0 14 L 0 4 A 4 4 0 0 1 4 0 Z" style="fill: rgb(8, 81, 156);"/><path class="expand" fill="#FFFFFF" d="M -5 -10 L 8.66 0 L -5 10 Z" transform="translate(9, 9) rotate(0) scale(0.5)"/><text class="title" font-size="11" font-family="sans-serif" x="18" y="13" fill="#FFFFFF">Expand(All)</text></g><path class="cost" fill="#F25A29" d="M 0 18.000000000000004 L 180 18.000000000000004 L 180 38.6666236527368 A 4 4 0 0 1 176 42.6666236527368 L 4 42.6666236527368 A 4 4 0 0 1 0 38.6666236527368 Z"/><text class="cost" font-size="10" font-family="sans-serif" fill="white" x="90" text-anchor="end" y="32">911 </text><text class="cost" font-size="10" font-family="sans-serif" fill="white" x="90" text-anchor="start" y="32">db hits</text><rect class="outline" stroke-width="1" fill="none" ry="4" rx="4" height="42.6666236527368" width="180" style="stroke: rgb(5, 56, 109);"/></g><g class="operator" transform="translate(0,-1237.6708984375)"><rect class="background" fill="#ffffff" ry="4" rx="4" height="35.044358156555475" width="180"/><g class="header" pointer-events="all"><path class="banner" d="M 176 0 A 4 4 0 0 1 180 4 L 180 14 A 4 4 0 0 1 180 18 L 0 18 A 4 4 0 0 1 0 14 L 0 4 A 4 4 0 0 1 4 0 Z" style="fill: rgb(33, 113, 181);"/><path class="expand" fill="#FFFFFF" d="M -5 -10 L 8.66 0 L -5 10 Z" transform="translate(9, 9) rotate(0) scale(0.5)"/><text class="title" font-size="11" font-family="sans-serif" x="18" y="13" fill="#FFFFFF">Filter</text></g><path class="cost" fill="#F25A29" d="M 0 17.999999999999996 L 180 17.999999999999996 L 180 31.044358156555475 A 4 4 0 0 1 176 35.044358156555475 L 4 35.044358156555475 A 4 4 0 0 1 0 31.044358156555475 Z"/><text class="cost" font-size="10" font-family="sans-serif" fill="white" x="90" text-anchor="end" y="31.999999999999996">110 </text><text class="cost" font-size="10" font-family="sans-serif" fill="white" x="90" text-anchor="start" y="31.999999999999996">db hits</text><rect class="outline" stroke-width="1" fill="none" ry="4" rx="4" height="35.044358156555475" width="180" style="stroke: rgb(23, 79, 126);"/></g><g class="operator" transform="translate(0,-1327.522705078125)"><rect class="background" fill="#ffffff" ry="4" rx="4" height="39.851783524719124" width="180"/><g class="header" pointer-events="all"><path class="banner" d="M 176 0 A 4 4 0 0 1 180 4 L 180 14 A 4 4 0 0 1 180 18 L 0 18 A 4 4 0 0 1 0 14 L 0 4 A 4 4 0 0 1 4 0 Z" style="fill: rgb(8, 81, 156);"/><path class="expand" fill="#FFFFFF" d="M -5 -10 L 8.66 0 L -5 10 Z" transform="translate(9, 9) rotate(0) scale(0.5)"/><text class="title" font-size="11" font-family="sans-serif" x="18" y="13" fill="#FFFFFF">Expand(All)</text></g><path class="cost" fill="#F25A29" d="M 0 17.999999999999996 L 180 17.999999999999996 L 180 35.851783524719124 A 4 4 0 0 1 176 39.851783524719124 L 4 39.851783524719124 A 4 4 0 0 1 0 35.851783524719124 Z"/><text class="cost" font-size="10" font-family="sans-serif" fill="white" x="90" text-anchor="end" y="31.999999999999996">418 </text><text class="cost" font-size="10" font-family="sans-serif" fill="white" x="90" text-anchor="start" y="31.999999999999996">db hits</text><rect class="outline" stroke-width="1" fill="none" ry="4" rx="4" height="39.851783524719124" width="180" style="stroke: rgb(5, 56, 109);"/></g><g class="operator" transform="translate(0,-1421.6961669921875)"><rect class="background" fill="#ffffff" ry="4" rx="4" height="44.17351816757759" width="180"/><g class="header" pointer-events="all"><path class="banner" d="M 176 0 A 4 4 0 0 1 180 4 L 180 14 A 4 4 0 0 1 180 18 L 0 18 A 4 4 0 0 1 0 14 L 0 4 A 4 4 0 0 1 4 0 Z" style="fill: rgb(33, 113, 181);"/><path class="expand" fill="#FFFFFF" d="M -5 -10 L 8.66 0 L -5 10 Z" transform="translate(9, 9) rotate(0) scale(0.5)"/><text class="title" font-size="11" font-family="sans-serif" x="18" y="13" fill="#FFFFFF">Filter</text></g><path class="cost" fill="#F25A29" d="M 0 18 L 180 18 L 180 40.17351816757759 A 4 4 0 0 1 176 44.17351816757759 L 4 44.17351816757759 A 4 4 0 0 1 0 40.17351816757759 Z"/><text class="cost" font-size="10" font-family="sans-serif" fill="white" x="90" text-anchor="end" y="32">1,382 </text><text class="cost" font-size="10" font-family="sans-serif" fill="white" x="90" text-anchor="start" y="32">db hits</text><rect class="outline" stroke-width="1" fill="none" ry="4" rx="4" height="44.17351816757759" width="180" style="stroke: rgb(23, 79, 126);"/></g><g class="operator" transform="translate(0,-1513.3690185546875)"><rect class="background" fill="#ffffff" ry="4" rx="4" height="41.67277695509839" width="180"/><g class="header" pointer-events="all"><path class="banner" d="M 176 0 A 4 4 0 0 1 180 4 L 180 14 A 4 4 0 0 1 180 18 L 0 18 A 4 4 0 0 1 0 14 L 0 4 A 4 4 0 0 1 4 0 Z" style="fill: rgb(8, 81, 156);"/><path class="expand" fill="#FFFFFF" d="M -5 -10 L 8.66 0 L -5 10 Z" transform="translate(9, 9) rotate(0) scale(0.5)"/><text class="title" font-size="11" font-family="sans-serif" x="18" y="13" fill="#FFFFFF">Expand(All)</text></g><path class="cost" fill="#F25A29" d="M 0 18 L 180 18 L 180 37.67277695509839 A 4 4 0 0 1 176 41.67277695509839 L 4 41.67277695509839 A 4 4 0 0 1 0 37.67277695509839 Z"/><text class="cost" font-size="10" font-family="sans-serif" fill="white" x="90" text-anchor="end" y="32">692 </text><text class="cost" font-size="10" font-family="sans-serif" fill="white" x="90" text-anchor="start" y="32">db hits</text><rect class="outline" stroke-width="1" fill="none" ry="4" rx="4" height="41.67277695509839" width="180" style="stroke: rgb(5, 56, 109);"/></g><g class="operator" transform="translate(0,-1601.8638916015625)"><rect class="background" fill="#ffffff" ry="4" rx="4" height="38.49493739799359" width="180"/><g class="header" pointer-events="all"><path class="banner" d="M 176 0 A 4 4 0 0 1 180 4 L 180 14 A 4 4 0 0 1 180 18 L 0 18 A 4 4 0 0 1 0 14 L 0 4 A 4 4 0 0 1 4 0 Z" style="fill: rgb(33, 113, 181);"/><path class="expand" fill="#FFFFFF" d="M -5 -10 L 8.66 0 L -5 10 Z" transform="translate(9, 9) rotate(0) scale(0.5)"/><text class="title" font-size="11" font-family="sans-serif" x="18" y="13" fill="#FFFFFF">Filter</text></g><path class="cost" fill="#F25A29" d="M 0 18 L 180 18 L 180 34.49493739799359 A 4 4 0 0 1 176 38.49493739799359 L 4 38.49493739799359 A 4 4 0 0 1 0 34.49493739799359 Z"/><text class="cost" font-size="10" font-family="sans-serif" fill="white" x="90" text-anchor="end" y="32">287 </text><text class="cost" font-size="10" font-family="sans-serif" fill="white" x="90" text-anchor="start" y="32">db hits</text><rect class="outline" stroke-width="1" fill="none" ry="4" rx="4" height="38.49493739799359" width="180" style="stroke: rgb(23, 79, 126);"/></g><g class="operator" transform="translate(0,-1690.3714599609375)"><rect class="background" fill="#ffffff" ry="4" rx="4" height="38.50748202297123" width="180"/><g class="header" pointer-events="all"><path class="banner" d="M 176 0 A 4 4 0 0 1 180 4 L 180 14 A 4 4 0 0 1 180 18 L 0 18 A 4 4 0 0 1 0 14 L 0 4 A 4 4 0 0 1 4 0 Z" style="fill: rgb(158, 202, 225);"/><path class="expand" fill="#000000" d="M -5 -10 L 8.66 0 L -5 10 Z" transform="translate(9, 9) rotate(0) scale(0.5)"/><text class="title" font-size="11" font-family="sans-serif" x="18" y="13" fill="#000000">NodeByLabelScan</text></g><path class="cost" fill="#F25A29" d="M 0 17.999999999999996 L 180 17.999999999999996 L 180 34.50748202297123 A 4 4 0 0 1 176 38.50748202297123 L 4 38.50748202297123 A 4 4 0 0 1 0 34.50748202297123 Z"/><text class="cost" font-size="10" font-family="sans-serif" fill="white" x="90" text-anchor="end" y="31.999999999999996">288 </text><text class="cost" font-size="10" font-family="sans-serif" fill="white" x="90" text-anchor="start" y="31.999999999999996">db hits</text><rect class="outline" stroke-width="1" fill="none" ry="4" rx="4" height="38.50748202297123" width="180" style="stroke: rgb(110, 141, 157);"/></g></g></svg>