<svg xmlns="http://www.w3.org/2000/svg" width="456.1849060058594" height="1513.3990478515625" viewBox="0.6565752029418945 -1563.3990478515625 456.1849060058594 1513.3990478515625"><title>Neo4j Graph Visualization</title><desc>Created using Neo4j (http://www.neo4j.com/)</desc><g class="layer links"><g class="link"><path fill="#DFE1E3" d="M 94.91848600379156 -1540.381839478708 C 94.91848600379156 -1517.3599507822835 95.273870360201 -1517.3599507822835 95.273870360201 -1490.381839478708 L 89.05945042090526 -1490.381839478708 C 89.05945042090526 -1513.4037281751323 88.70406606449582 -1513.4037281751323 88.70406606449582 -1540.381839478708 Z"/><text font-size="10" font-family="sans-serif" text-anchor="end" y="-1526.381839478708" x="91.81127603414369">1 </text><text font-size="10" font-family="sans-serif" text-anchor="start" y="-1526.381839478708" x="91.81127603414369">row</text></g><g class="link"><path fill="#DFE1E3" d="M 105.40397657959653 -1457.7495490147705 C 105.40397657959653 -1441.176686233797 106.14927722143393 -1441.176686233797 106.14927722143393 -1407.7495490147705 L 79.67464484334712 -1407.7495490147705 C 79.67464484334712 -1424.322411795744 78.92934420150974 -1424.322411795744 78.92934420150974 -1457.7495490147705 Z"/><text font-size="10" font-family="sans-serif" text-anchor="end" y="-1443.7495490147705" x="92.16666039055313">55 </text><text font-size="10" font-family="sans-serif" text-anchor="start" y="-1443.7495490147705" x="92.16666039055313">rows</text></g><g class="link"><path fill="#DFE1E3" d="M 106.14927722143392 -1372.705190858215 C 106.14927722143392 -1356.1323280772415 107.35101720125238 -1356.1323280772415 107.35101720125238 -1322.705190858215 L 80.87638482316557 -1322.705190858215 C 80.87638482316557 -1339.2780536391886 79.67464484334712 -1339.2780536391886 79.67464484334712 -1372.705190858215 Z"/><text font-size="10" font-family="sans-serif" text-anchor="end" y="-1358.705190858215" x="92.91196103239052">55 </text><text font-size="10" font-family="sans-serif" text-anchor="start" y="-1358.705190858215" x="92.91196103239052">rows</text></g><g class="link"><path fill="#DFE1E3" d="M 105.24380723160449 -1288.7128734217476 C 105.24380723160449 -1270.7985191095663 106.99542468354457 -1270.7985191095663 106.99542468354457 -1238.7128734217476 L 84.7352122447535 -1238.7128734217476 C 84.7352122447535 -1256.627227733929 82.98359479281343 -1256.627227733929 82.98359479281343 -1288.7128734217476 Z"/><text font-size="10" font-family="sans-serif" text-anchor="end" y="-1274.7128734217476" x="94.11370101220896">27 </text><text font-size="10" font-family="sans-serif" text-anchor="start" y="-1274.7128734217476" x="94.11370101220896">rows</text></g><g class="link"><path fill="#DFE1E3" d="M 106.99542468354456 -1203.7343192722424 C 106.99542468354456 -1185.819964960061 109.41001452580069 -1185.819964960061 109.41001452580069 -1153.7343192722424 L 87.14980208700962 -1153.7343192722424 C 87.14980208700962 -1171.6486735844237 84.7352122447535 -1171.6486735844237 84.7352122447535 -1203.7343192722424 Z"/><text font-size="10" font-family="sans-serif" text-anchor="end" y="-1189.7343192722424" x="95.86531846414903">27 </text><text font-size="10" font-family="sans-serif" text-anchor="start" y="-1189.7343192722424" x="95.86531846414903">rows</text></g><g class="link"><path fill="#DFE1E3" d="M 114.1008073759955 -1117.4121768809555 C 114.1008073759955 -1102.4840740452885 117.30381269446418 -1102.4840740452885 117.30381269446418 -1067.4121768809555 L 85.66201455528348 -1067.4121768809555 C 85.66201455528348 -1082.3402797166225 82.4590092368148 -1082.3402797166225 82.4590092368148 -1117.4121768809555 Z"/><text font-size="10" font-family="sans-serif" text-anchor="end" y="-1103.4121768809555" x="98.27990830640515">130 </text><text font-size="10" font-family="sans-serif" text-anchor="start" y="-1103.4121768809555" x="98.27990830640515">rows</text></g><g class="link"><path fill="#DFE1E3" d="M 115.31047601381749 -1031.7682494171574 C 115.31047601381749 -1015.5711490376053 119.45157988576675 -1015.5711490376053 119.45157988576675 -981.7682494171574 L 91.79645510787944 -981.7682494171574 C 91.79645510787944 -997.9653497967096 87.65535123593017 -997.9653497967096 87.65535123593017 -1031.7682494171574 Z"/><text font-size="10" font-family="sans-serif" text-anchor="end" y="-1017.7682494171574" x="101.48291362487383">67 </text><text font-size="10" font-family="sans-serif" text-anchor="start" y="-1017.7682494171574" x="101.48291362487383">rows</text></g><g class="link"><path fill="#DFE1E3" d="M 117.83843743611882 -948.4973418112721 C 117.83843743611882 -931.2732830526286 122.64411103551998 -931.2732830526286 122.64411103551998 -898.4973418112721 L 98.21527115692851 -898.4973418112721 C 98.21527115692851 -915.7214005699157 93.40959755752735 -915.7214005699157 93.40959755752735 -948.4973418112721 Z"/><text font-size="10" font-family="sans-serif" text-anchor="end" y="-934.4973418112721" x="105.62401749682309">39 </text><text font-size="10" font-family="sans-serif" text-anchor="start" y="-934.4973418112721" x="105.62401749682309">rows</text></g><g class="link"><path fill="#DFE1E3" d="M 116.32248112657638 -880.4973418112721 C 116.32248112657638 -851.7458751635394 112.09362220449316 -851.7458751635394 112.09362220449316 -830.4973418112721 L 100.3080421437889 -830.4973418112721 C 100.3080421437889 -859.2488084590049 104.53690106587212 -859.2488084590049 104.53690106587212 -880.4973418112721 Z"/><text font-size="10" font-family="sans-serif" text-anchor="end" y="-866.4973418112721" x="110.42969109622425">4 </text><text font-size="10" font-family="sans-serif" text-anchor="start" y="-866.4973418112721" x="110.42969109622425">rows</text></g><g class="link"><path fill="#DFE1E3" d="M 109.3080421437889 -812.4973418112721 C 109.3080421437889 -775.5869293691727 287.4058926125195 -775.5869293691727 287.4058926125195 -734.7202943199225 L 281.19147267322376 -734.7202943199225 C 281.19147267322376 -771.6307067620218 103.09362220449316 -771.6307067620218 103.09362220449316 -812.4973418112721 Z"/><text font-size="10" font-family="sans-serif" text-anchor="end" y="-798.4973418112721" x="106.20083217414103">1 </text><text font-size="10" font-family="sans-serif" text-anchor="start" y="-798.4973418112721" x="106.20083217414103">row</text></g><g class="link"><path fill="#DFE1E3" d="M 390.0166497716193 -784.7202943199225 C 390.0166497716193 -744.2314015500979 336.0656843504404 -744.2314015500979 336.0656843504404 -734.7202943199225 L 287.4058926125195 -734.7202943199225 C 287.4058926125195 -775.209187089747 341.35685803369836 -775.209187089747 341.35685803369836 -784.7202943199225 Z"/><text font-size="10" font-family="sans-serif" text-anchor="end" y="-770.7202943199225" x="365.68675390265884">2,151 </text><text font-size="10" font-family="sans-serif" text-anchor="start" y="-770.7202943199225" x="365.68675390265884">rows</text></g><g class="link"><path fill="#DFE1E3" d="M 332.95847438079255 -716.7202943199225 C 332.95847438079255 -676.2314015500979 306.7137093430141 -676.2314015500979 306.7137093430141 -666.7202943199225 L 258.05391760509315 -666.7202943199225 C 258.05391760509315 -707.209187089747 284.2986826428716 -707.209187089747 284.2986826428716 -716.7202943199225 Z"/><text font-size="10" font-family="sans-serif" text-anchor="end" y="-702.7202943199225" x="308.6285785118321">2,151 </text><text font-size="10" font-family="sans-serif" text-anchor="start" y="-702.7202943199225" x="308.6285785118321">rows</text></g><g class="link"><path fill="#DFE1E3" d="M 305.2576245199506 -616.9773315553626 C 305.2576245199506 -577.4154111741447 281.1282220607882 -577.4154111741447 281.1282220607882 -566.9773315553626 L 235.38059996899412 -566.9773315553626 C 235.38059996899412 -606.5392519365806 259.51000242815655 -606.5392519365806 259.51000242815655 -616.9773315553626 Z"/><text font-size="10" font-family="sans-serif" text-anchor="end" y="-602.9773315553626" x="282.38381347405357">1,332 </text><text font-size="10" font-family="sans-serif" text-anchor="start" y="-602.9773315553626" x="282.38381347405357">rows</text></g><g class="link"><path fill="#DFE1E3" d="M 285.23529019264237 -517.2147650558182 C 285.23529019264237 -476.29927074662874 263.6108137464084 -476.29927074662874 263.6108137464084 -467.21476505581825 L 209.64905539090603 -467.21476505581825 C 209.64905539090603 -508.13025936500776 231.27353183713998 -508.13025936500776 231.27353183713998 -517.2147650558182 Z"/><text font-size="10" font-family="sans-serif" text-anchor="end" y="-503.21476505581825" x="258.25441101489116">5,146 </text><text font-size="10" font-family="sans-serif" text-anchor="start" y="-503.21476505581825" x="258.25441101489116">rows</text></g><g class="link"><path fill="#DFE1E3" d="M 257.65230061465417 -417.80883105267105 C 257.65230061465417 -379.4255771658405 238.96943540192024 -379.4255771658405 238.96943540192024 -367.80883105267105 L 196.92470330992631 -367.80883105267105 C 196.92470330992631 -406.1920849395016 215.60756852266027 -406.1920849395016 215.60756852266027 -417.80883105267105 Z"/><text font-size="10" font-family="sans-serif" text-anchor="end" y="-403.80883105267105" x="236.62993456865723">724 </text><text font-size="10" font-family="sans-serif" text-anchor="start" y="-403.80883105267105" x="236.62993456865723">rows</text></g><g class="link"><path fill="#DFE1E3" d="M 238.35845220947309 -322 C 238.35845220947309 -284.00571009406553 222.99657791495184 -284.00571009406553 222.99657791495184 -272 L 182.17381220785217 -272 C 182.17381220785217 -309.99428990593447 197.5356865023734 -309.99428990593447 197.5356865023734 -322 Z"/><text font-size="10" font-family="sans-serif" text-anchor="end" y="-308" x="217.94706935592325">592 </text><text font-size="10" font-family="sans-serif" text-anchor="start" y="-308" x="217.94706935592325">rows</text></g><g class="link"><path fill="#DFE1E3" d="M 209.03225381408748 -254 C 209.03225381408748 -224.89567492442492 197.29302858001398 -224.89567492442492 197.29302858001398 -204 L 184.39891107464297 -204 C 184.39891107464297 -233.10432507557508 196.13813630871647 -233.10432507557508 196.13813630871647 -254 Z"/><text font-size="10" font-family="sans-serif" text-anchor="end" y="-240" x="202.58519506140198">5 </text><text font-size="10" font-family="sans-serif" text-anchor="start" y="-240" x="202.58519506140198">rows</text></g><g class="link"><path fill="#DFE1E3" d="M 197.29302858001398 -186 C 197.29302858001398 -156.89567492442492 189.38793583712078 -156.89567492442492 189.38793583712078 -136 L 176.49381833174976 -136 C 176.49381833174976 -165.10432507557508 184.39891107464297 -165.10432507557508 184.39891107464297 -186 Z"/><text font-size="10" font-family="sans-serif" text-anchor="end" y="-172" x="190.84596982732847">5 </text><text font-size="10" font-family="sans-serif" text-anchor="start" y="-172" x="190.84596982732847">rows</text></g><g class="link"><path fill="#DFE1E3" d="M 189.38793583712078 -118 C 189.38793583712078 -88.89567492442492 185.4317882705933 -88.89567492442492 185.4317882705933 -68 L 172.5376707652223 -68 C 172.5376707652223 -97.10432507557508 176.49381833174976 -97.10432507557508 176.49381833174976 -118 Z"/><text font-size="10" font-family="sans-serif" text-anchor="end" y="-104" x="182.94087708443527">5 </text><text font-size="10" font-family="sans-serif" text-anchor="start" y="-104" x="182.94087708443527">rows</text></g></g><g class="layer operators"><g class="operator" transform="translate(88.98472595214844,-68)"><rect class="background" fill="#ffffff" ry="4" rx="4" height="18" width="180"/><g class="header" pointer-events="all"><path class="banner" d="M 176 0 A 4 4 0 0 1 180 4 L 180 14 A 4 4 0 0 1 176 18 L 4 18 A 4 4 0 0 1 0 14 L 0 4 A 4 4 0 0 1 4 0 Z" style="fill: rgb(198, 219, 239);"/><text class="title" font-size="11" font-family="sans-serif" x="18" y="13" fill="#000000">Result</text></g><path class="cost" fill="#F25A29" d="M 176 18 A 4 4 0 0 1 176 18 L 4 18 A 4 4 0 0 1 4 18 Z"/><rect class="outline" stroke-width="1" fill="none" ry="4" rx="4" height="18" width="180" style="stroke: rgb(138, 153, 167);"/></g><g class="operator" transform="translate(92.94087982177734,-136)"><rect class="background" fill="#ffffff" ry="4" rx="4" height="18" width="180"/><g class="header" pointer-events="all"><path class="banner" d="M 176 0 A 4 4 0 0 1 180 4 L 180 14 A 4 4 0 0 1 176 18 L 4 18 A 4 4 0 0 1 0 14 L 0 4 A 4 4 0 0 1 4 0 Z" style="fill: rgb(198, 219, 239);"/><path class="expand" fill="#000000" d="M -5 -10 L 8.66 0 L -5 10 Z" transform="translate(9, 9) rotate(0) scale(0.5)"/><text class="title" font-size="11" font-family="sans-serif" x="18" y="13" fill="#000000">ProduceResults</text></g><path class="cost" fill="#F25A29" d="M 176 18 A 4 4 0 0 1 176 18 L 4 18 A 4 4 0 0 1 4 18 Z"/><rect class="outline" stroke-width="1" fill="none" ry="4" rx="4" height="18" width="180" style="stroke: rgb(138, 153, 167);"/></g><g class="operator" transform="translate(100.8459701538086,-204)"><rect class="background" fill="#ffffff" ry="4" rx="4" height="18" width="180"/><g class="header" pointer-events="all"><path class="banner" d="M 176 0 A 4 4 0 0 1 180 4 L 180 14 A 4 4 0 0 1 176 18 L 4 18 A 4 4 0 0 1 0 14 L 0 4 A 4 4 0 0 1 4 0 Z" style="fill: rgb(107, 174, 214);"/><path class="expand" fill="#FFFFFF" d="M -5 -10 L 8.66 0 L -5 10 Z" transform="translate(9, 9) rotate(0) scale(0.5)"/><text class="title" font-size="11" font-family="sans-serif" x="18" y="13" fill="#FFFFFF">Projection</text></g><path class="cost" fill="#F25A29" d="M 176 18 A 4 4 0 0 1 176 18 L 4 18 A 4 4 0 0 1 4 18 Z"/><rect class="outline" stroke-width="1" fill="none" ry="4" rx="4" height="18" width="180" style="stroke: rgb(74, 121, 149);"/></g><g class="operator" transform="translate(112.58519744873047,-272)"><rect class="background" fill="#ffffff" ry="4" rx="4" height="18" width="180"/><g class="header" pointer-events="all"><path class="banner" d="M 176 0 A 4 4 0 0 1 180 4 L 180 14 A 4 4 0 0 1 176 18 L 4 18 A 4 4 0 0 1 0 14 L 0 4 A 4 4 0 0 1 4 0 Z" style="fill: rgb(107, 174, 214);"/><path class="expand" fill="#FFFFFF" d="M -5 -10 L 8.66 0 L -5 10 Z" transform="translate(9, 9) rotate(0) scale(0.5)"/><text class="title" font-size="11" font-family="sans-serif" x="18" y="13" fill="#FFFFFF">Top</text></g><path class="cost" fill="#F25A29" d="M 176 18 A 4 4 0 0 1 176 18 L 4 18 A 4 4 0 0 1 4 18 Z"/><rect class="outline" stroke-width="1" fill="none" ry="4" rx="4" height="18" width="180" style="stroke: rgb(74, 121, 149);"/></g><g class="operator" transform="translate(127.94706726074219,-367.808837890625)"><rect class="background" fill="#ffffff" ry="4" rx="4" height="45.80883105267104" width="180"/><g class="header" pointer-events="all"><path class="banner" d="M 176 0 A 4 4 0 0 1 180 4 L 180 14 A 4 4 0 0 1 180 18 L 0 18 A 4 4 0 0 1 0 14 L 0 4 A 4 4 0 0 1 4 0 Z" style="fill: rgb(33, 113, 181);"/><path class="expand" fill="#FFFFFF" d="M -5 -10 L 8.66 0 L -5 10 Z" transform="translate(9, 9) rotate(0) scale(0.5)"/><text class="title" font-size="11" font-family="sans-serif" x="18" y="13" fill="#FFFFFF">Distinct</text></g><path class="cost" fill="#F25A29" d="M 0 18 L 180 18 L 180 41.80883105267104 A 4 4 0 0 1 176 45.80883105267104 L 4 45.80883105267104 A 4 4 0 0 1 0 41.80883105267104 Z"/><text class="cost" font-size="10" font-family="sans-serif" fill="white" x="90" text-anchor="end" y="32">2,172 </text><text class="cost" font-size="10" font-family="sans-serif" fill="white" x="90" text-anchor="start" y="32">db hits</text><rect class="outline" stroke-width="1" fill="none" ry="4" rx="4" height="45.80883105267104" width="180" style="stroke: rgb(23, 79, 126);"/></g><g class="operator" transform="translate(146.6299285888672,-467.2147521972656)"><rect class="background" fill="#ffffff" ry="4" rx="4" height="49.405934003147195" width="180"/><g class="header" pointer-events="all"><path class="banner" d="M 176 0 A 4 4 0 0 1 180 4 L 180 14 A 4 4 0 0 1 180 18 L 0 18 A 4 4 0 0 1 0 14 L 0 4 A 4 4 0 0 1 4 0 Z" style="fill: rgb(33, 113, 181);"/><path class="expand" fill="#FFFFFF" d="M -5 -10 L 8.66 0 L -5 10 Z" transform="translate(9, 9) rotate(0) scale(0.5)"/><text class="title" font-size="11" font-family="sans-serif" x="18" y="13" fill="#FFFFFF">Filter</text></g><path class="cost" fill="#F25A29" d="M 0 18 L 180 18 L 180 45.405934003147195 A 4 4 0 0 1 176 49.405934003147195 L 4 49.405934003147195 A 4 4 0 0 1 0 45.405934003147195 Z"/><text class="cost" font-size="10" font-family="sans-serif" fill="white" x="90" text-anchor="end" y="32">5,870 </text><text class="cost" font-size="10" font-family="sans-serif" fill="white" x="90" text-anchor="start" y="32">db hits</text><rect class="outline" stroke-width="1" fill="none" ry="4" rx="4" height="49.405934003147195" width="180" style="stroke: rgb(23, 79, 126);"/></g><g class="operator" transform="translate(168.25440979003906,-566.9773559570312)"><rect class="background" fill="#ffffff" ry="4" rx="4" height="49.7625664995444" width="180"/><g class="header" pointer-events="all"><path class="banner" d="M 176 0 A 4 4 0 0 1 180 4 L 180 14 A 4 4 0 0 1 180 18 L 0 18 A 4 4 0 0 1 0 14 L 0 4 A 4 4 0 0 1 4 0 Z" style="fill: rgb(8, 81, 156);"/><path class="expand" fill="#FFFFFF" d="M -5 -10 L 8.66 0 L -5 10 Z" transform="translate(9, 9) rotate(0) scale(0.5)"/><text class="title" font-size="11" font-family="sans-serif" x="18" y="13" fill="#FFFFFF">Expand(All)</text></g><path class="cost" fill="#F25A29" d="M 0 18 L 180 18 L 180 45.7625664995444 A 4 4 0 0 1 176 49.7625664995444 L 4 49.7625664995444 A 4 4 0 0 1 0 45.7625664995444 Z"/><text class="cost" font-size="10" font-family="sans-serif" fill="white" x="90" text-anchor="end" y="32">6,478 </text><text class="cost" font-size="10" font-family="sans-serif" fill="white" x="90" text-anchor="start" y="32">db hits</text><rect class="outline" stroke-width="1" fill="none" ry="4" rx="4" height="49.7625664995444" width="180" style="stroke: rgb(5, 56, 109);"/></g><g class="operator" transform="translate(192.38381958007812,-666.7202758789062)"><rect class="background" fill="#ffffff" ry="4" rx="4" height="49.74296276455985" width="180"/><g class="header" pointer-events="all"><path class="banner" d="M 176 0 A 4 4 0 0 1 180 4 L 180 14 A 4 4 0 0 1 180 18 L 0 18 A 4 4 0 0 1 0 14 L 0 4 A 4 4 0 0 1 4 0 Z" style="fill: rgb(33, 113, 181);"/><path class="expand" fill="#FFFFFF" d="M -5 -10 L 8.66 0 L -5 10 Z" transform="translate(9, 9) rotate(0) scale(0.5)"/><text class="title" font-size="11" font-family="sans-serif" x="18" y="13" fill="#FFFFFF">Filter</text></g><path class="cost" fill="#F25A29" d="M 0 18.000000000000004 L 180 18.000000000000004 L 180 45.74296276455985 A 4 4 0 0 1 176 49.74296276455985 L 4 49.74296276455985 A 4 4 0 0 1 0 45.74296276455985 Z"/><text class="cost" font-size="10" font-family="sans-serif" fill="white" x="90" text-anchor="end" y="32">6,443 </text><text class="cost" font-size="10" font-family="sans-serif" fill="white" x="90" text-anchor="start" y="32">db hits</text><rect class="outline" stroke-width="1" fill="none" ry="4" rx="4" height="49.74296276455985" width="180" style="stroke: rgb(23, 79, 126);"/></g><g class="operator" transform="translate(218.6285858154297,-734.7202758789062)"><rect class="background" fill="#ffffff" ry="4" rx="4" height="18" width="180"/><g class="header" pointer-events="all"><path class="banner" d="M 176 0 A 4 4 0 0 1 180 4 L 180 14 A 4 4 0 0 1 176 18 L 4 18 A 4 4 0 0 1 0 14 L 0 4 A 4 4 0 0 1 4 0 Z" style="fill: rgb(33, 113, 181);"/><path class="expand" fill="#FFFFFF" d="M -5 -10 L 8.66 0 L -5 10 Z" transform="translate(9, 9) rotate(0) scale(0.5)"/><text class="title" font-size="11" font-family="sans-serif" x="18" y="13" fill="#FFFFFF">Apply</text></g><path class="cost" fill="#F25A29" d="M 176 18 A 4 4 0 0 1 176 18 L 4 18 A 4 4 0 0 1 4 18 Z"/><rect class="outline" stroke-width="1" fill="none" ry="4" rx="4" height="18" width="180" style="stroke: rgb(23, 79, 126);"/></g><g class="operator" transform="translate(16.20083236694336,-830.497314453125)"><rect class="background" fill="#ffffff" ry="4" rx="4" height="18" width="180"/><g class="header" pointer-events="all"><path class="banner" d="M 176 0 A 4 4 0 0 1 180 4 L 180 14 A 4 4 0 0 1 176 18 L 4 18 A 4 4 0 0 1 0 14 L 0 4 A 4 4 0 0 1 4 0 Z" style="fill: rgb(8, 48, 107);"/><path class="expand" fill="#FFFFFF" d="M -5 -10 L 8.66 0 L -5 10 Z" transform="translate(9, 9) rotate(0) scale(0.5)"/><text class="title" font-size="11" font-family="sans-serif" x="18" y="13" fill="#FFFFFF">EagerAggregation</text></g><path class="cost" fill="#F25A29" d="M 176 18 A 4 4 0 0 1 176 18 L 4 18 A 4 4 0 0 1 4 18 Z"/><rect class="outline" stroke-width="1" fill="none" ry="4" rx="4" height="18" width="180" style="stroke: rgb(5, 33, 74);"/></g><g class="operator" transform="translate(20.429691314697266,-898.497314453125)"><rect class="background" fill="#ffffff" ry="4" rx="4" height="18" width="180"/><g class="header" pointer-events="all"><path class="banner" d="M 176 0 A 4 4 0 0 1 180 4 L 180 14 A 4 4 0 0 1 176 18 L 4 18 A 4 4 0 0 1 0 14 L 0 4 A 4 4 0 0 1 4 0 Z" style="fill: rgb(107, 174, 214);"/><path class="expand" fill="#FFFFFF" d="M -5 -10 L 8.66 0 L -5 10 Z" transform="translate(9, 9) rotate(0) scale(0.5)"/><text class="title" font-size="11" font-family="sans-serif" x="18" y="13" fill="#FFFFFF">Top</text></g><path class="cost" fill="#F25A29" d="M 176 18 A 4 4 0 0 1 176 18 L 4 18 A 4 4 0 0 1 4 18 Z"/><rect class="outline" stroke-width="1" fill="none" ry="4" rx="4" height="18" width="180" style="stroke: rgb(74, 121, 149);"/></g><g class="operator" transform="translate(15.624017715454102,-981.7682495117188)"><rect class="background" fill="#ffffff" ry="4" rx="4" height="33.270907605885306" width="180"/><g class="header" pointer-events="all"><path class="banner" d="M 176 0 A 4 4 0 0 1 180 4 L 180 14 A 4 4 0 0 1 180 18 L 0 18 A 4 4 0 0 1 0 14 L 0 4 A 4 4 0 0 1 4 0 Z" style="fill: rgb(8, 48, 107);"/><path class="expand" fill="#FFFFFF" d="M -5 -10 L 8.66 0 L -5 10 Z" transform="translate(9, 9) rotate(0) scale(0.5)"/><text class="title" font-size="11" font-family="sans-serif" x="18" y="13" fill="#FFFFFF">EagerAggregation</text></g><path class="cost" fill="#F25A29" d="M 0 18 L 180 18 L 180 29.270907605885306 A 4 4 0 0 1 176 33.270907605885306 L 4 33.270907605885306 A 4 4 0 0 1 0 29.270907605885306 Z"/><rect class="outline" stroke-width="1" fill="none" ry="4" rx="4" height="33.270907605885306" width="180" style="stroke: rgb(5, 33, 74);"/></g><g class="operator" transform="translate(11.482913970947266,-1067.4122314453125)"><rect class="background" fill="#ffffff" ry="4" rx="4" height="35.643927463798036" width="180"/><g class="header" pointer-events="all"><path class="banner" d="M 176 0 A 4 4 0 0 1 180 4 L 180 14 A 4 4 0 0 1 180 18 L 0 18 A 4 4 0 0 1 0 14 L 0 4 A 4 4 0 0 1 4 0 Z" style="fill: rgb(33, 113, 181);"/><path class="expand" fill="#FFFFFF" d="M -5 -10 L 8.66 0 L -5 10 Z" transform="translate(9, 9) rotate(0) scale(0.5)"/><text class="title" font-size="11" font-family="sans-serif" x="18" y="13" fill="#FFFFFF">Filter</text></g><path class="cost" fill="#F25A29" d="M 0 18 L 180 18 L 180 31.643927463798036 A 4 4 0 0 1 176 35.643927463798036 L 4 35.643927463798036 A 4 4 0 0 1 0 31.643927463798036 Z"/><text class="cost" font-size="10" font-family="sans-serif" fill="white" x="90" text-anchor="end" y="32">130 </text><text class="cost" font-size="10" font-family="sans-serif" fill="white" x="90" text-anchor="start" y="32">db hits</text><rect class="outline" stroke-width="1" fill="none" ry="4" rx="4" height="35.643927463798036" width="180" style="stroke: rgb(23, 79, 126);"/></g><g class="operator" transform="translate(8.279908180236816,-1153.734375)"><rect class="background" fill="#ffffff" ry="4" rx="4" height="36.32214239128686" width="180"/><g class="header" pointer-events="all"><path class="banner" d="M 176 0 A 4 4 0 0 1 180 4 L 180 14 A 4 4 0 0 1 180 18 L 0 18 A 4 4 0 0 1 0 14 L 0 4 A 4 4 0 0 1 4 0 Z" style="fill: rgb(8, 81, 156);"/><path class="expand" fill="#FFFFFF" d="M -5 -10 L 8.66 0 L -5 10 Z" transform="translate(9, 9) rotate(0) scale(0.5)"/><text class="title" font-size="11" font-family="sans-serif" x="18" y="13" fill="#FFFFFF">Expand(All)</text></g><path class="cost" fill="#F25A29" d="M 0 18.000000000000004 L 180 18.000000000000004 L 180 32.32214239128686 A 4 4 0 0 1 176 36.32214239128686 L 4 36.32214239128686 A 4 4 0 0 1 0 32.32214239128686 Z"/><text class="cost" font-size="10" font-family="sans-serif" fill="white" x="90" text-anchor="end" y="32">157 </text><text class="cost" font-size="10" font-family="sans-serif" fill="white" x="90" text-anchor="start" y="32">db hits</text><rect class="outline" stroke-width="1" fill="none" ry="4" rx="4" height="36.32214239128686" width="180" style="stroke: rgb(5, 56, 109);"/></g><g class="operator" transform="translate(5.865318298339844,-1238.712890625)"><rect class="background" fill="#ffffff" ry="4" rx="4" height="34.9785541495052" width="180"/><g class="header" pointer-events="all"><path class="banner" d="M 176 0 A 4 4 0 0 1 180 4 L 180 14 A 4 4 0 0 1 180 18 L 0 18 A 4 4 0 0 1 0 14 L 0 4 A 4 4 0 0 1 4 0 Z" style="fill: rgb(33, 113, 181);"/><path class="expand" fill="#FFFFFF" d="M -5 -10 L 8.66 0 L -5 10 Z" transform="translate(9, 9) rotate(0) scale(0.5)"/><text class="title" font-size="11" font-family="sans-serif" x="18" y="13" fill="#FFFFFF">Filter</text></g><path class="cost" fill="#F25A29" d="M 0 18 L 180 18 L 180 30.9785541495052 A 4 4 0 0 1 176 34.9785541495052 L 4 34.9785541495052 A 4 4 0 0 1 0 30.9785541495052 Z"/><rect class="outline" stroke-width="1" fill="none" ry="4" rx="4" height="34.9785541495052" width="180" style="stroke: rgb(23, 79, 126);"/></g><g class="operator" transform="translate(4.113700866699219,-1322.7052001953125)"><rect class="background" fill="#ffffff" ry="4" rx="4" height="33.99231743646729" width="180"/><g class="header" pointer-events="all"><path class="banner" d="M 176 0 A 4 4 0 0 1 180 4 L 180 14 A 4 4 0 0 1 180 18 L 0 18 A 4 4 0 0 1 0 14 L 0 4 A 4 4 0 0 1 4 0 Z" style="fill: rgb(8, 81, 156);"/><path class="expand" fill="#FFFFFF" d="M -5 -10 L 8.66 0 L -5 10 Z" transform="translate(9, 9) rotate(0) scale(0.5)"/><text class="title" font-size="11" font-family="sans-serif" x="18" y="13" fill="#FFFFFF">Expand(All)</text></g><path class="cost" fill="#F25A29" d="M 0 18.000000000000004 L 180 18.000000000000004 L 180 29.99231743646729 A 4 4 0 0 1 176 33.99231743646729 L 4 33.99231743646729 A 4 4 0 0 1 0 29.99231743646729 Z"/><rect class="outline" stroke-width="1" fill="none" ry="4" rx="4" height="33.99231743646729" width="180" style="stroke: rgb(5, 56, 109);"/></g><g class="operator" transform="translate(2.911961078643799,-1407.74951171875)"><rect class="background" fill="#ffffff" ry="4" rx="4" height="35.044358156555475" width="180"/><g class="header" pointer-events="all"><path class="banner" d="M 176 0 A 4 4 0 0 1 180 4 L 180 14 A 4 4 0 0 1 180 18 L 0 18 A 4 4 0 0 1 0 14 L 0 4 A 4 4 0 0 1 4 0 Z" style="fill: rgb(33, 113, 181);"/><path class="expand" fill="#FFFFFF" d="M -5 -10 L 8.66 0 L -5 10 Z" transform="translate(9, 9) rotate(0) scale(0.5)"/><text class="title" font-size="11" font-family="sans-serif" x="18" y="13" fill="#FFFFFF">Filter</text></g><path class="cost" fill="#F25A29" d="M 0 17.999999999999996 L 180 17.999999999999996 L 180 31.044358156555475 A 4 4 0 0 1 176 35.044358156555475 L 4 35.044358156555475 A 4 4 0 0 1 0 31.044358156555475 Z"/><text class="cost" font-size="10" font-family="sans-serif" fill="white" x="90" text-anchor="end" y="31.999999999999996">110 </text><text class="cost" font-size="10" font-family="sans-serif" fill="white" x="90" text-anchor="start" y="31.999999999999996">db hits</text><rect class="outline" stroke-width="1" fill="none" ry="4" rx="4" height="35.044358156555475" width="180" style="stroke: rgb(23, 79, 126);"/></g><g class="operator" transform="translate(2.1666603088378906,-1490.3818359375)"><rect class="background" fill="#ffffff" ry="4" rx="4" height="32.63229046393743" width="180"/><g class="header" pointer-events="all"><path class="banner" d="M 176 0 A 4 4 0 0 1 180 4 L 180 14 A 4 4 0 0 1 180 18 L 0 18 A 4 4 0 0 1 0 14 L 0 4 A 4 4 0 0 1 4 0 Z" style="fill: rgb(8, 81, 156);"/><path class="expand" fill="#FFFFFF" d="M -5 -10 L 8.66 0 L -5 10 Z" transform="translate(9, 9) rotate(0) scale(0.5)"/><text class="title" font-size="11" font-family="sans-serif" x="18" y="13" fill="#FFFFFF">Expand(All)</text></g><path class="cost" fill="#F25A29" d="M 0 18 L 180 18 L 180 28.63229046393743 A 4 4 0 0 1 176 32.63229046393743 L 4 32.63229046393743 A 4 4 0 0 1 0 28.63229046393743 Z"/><rect class="outline" stroke-width="1" fill="none" ry="4" rx="4" height="32.63229046393743" width="180" style="stroke: rgb(5, 56, 109);"/></g><g class="operator" transform="translate(1.8112759590148926,-1563.3990478515625)"><rect class="background" fill="#ffffff" ry="4" rx="4" height="23.017166594399686" width="180"/><g class="header" pointer-events="all"><path class="banner" d="M 176 0 A 4 4 0 0 1 180 4 L 180 14 A 4 4 0 0 1 180 18 L 0 18 A 4 4 0 0 1 0 14 L 0 4 A 4 4 0 0 1 4 0 Z" style="fill: rgb(158, 202, 225);"/><path class="expand" fill="#000000" d="M -5 -10 L 8.66 0 L -5 10 Z" transform="translate(9, 9) rotate(0) scale(0.5)"/><text class="title" font-size="11" font-family="sans-serif" x="18" y="13" fill="#000000">NodeIndexSeek</text></g><path class="cost" fill="#F25A29" d="M 0 18 L 180 18 L 180 19.017166594399686 A 4 4 0 0 1 176 23.017166594399686 L 4 23.017166594399686 A 4 4 0 0 1 0 19.017166594399686 Z"/><rect class="outline" stroke-width="1" fill="none" ry="4" rx="4" height="23.017166594399686" width="180" style="stroke: rgb(110, 141, 157);"/></g><g class="operator" transform="translate(275.686767578125,-830.497314453125)"><rect class="background" fill="#ffffff" ry="4" rx="4" height="45.77704749134969" width="180"/><g class="header" pointer-events="all"><path class="banner" d="M 176 0 A 4 4 0 0 1 180 4 L 180 14 A 4 4 0 0 1 180 18 L 0 18 A 4 4 0 0 1 0 14 L 0 4 A 4 4 0 0 1 4 0 Z" style="fill: rgb(158, 202, 225);"/><path class="expand" fill="#000000" d="M -5 -10 L 8.66 0 L -5 10 Z" transform="translate(9, 9) rotate(0) scale(0.5)"/><text class="title" font-size="11" font-family="sans-serif" x="18" y="13" fill="#000000">NodeIndexSeek</text></g><path class="cost" fill="#F25A29" d="M 0 18.000000000000004 L 180 18.000000000000004 L 180 41.77704749134969 A 4 4 0 0 1 176 45.77704749134969 L 4 45.77704749134969 A 4 4 0 0 1 0 41.77704749134969 Z"/><text class="cost" font-size="10" font-family="sans-serif" fill="white" x="90" text-anchor="end" y="32">2,153 </text><text class="cost" font-size="10" font-family="sans-serif" fill="white" x="90" text-anchor="start" y="32">db hits</text><rect class="outline" stroke-width="1" fill="none" ry="4" rx="4" height="45.77704749134969" width="180" style="stroke: rgb(110, 141, 157);"/></g></g></svg>