<svg xmlns="http://www.w3.org/2000/svg" width="182.3094024658203" height="1715.8143310546875" viewBox="-1.154700756072998 -1765.8143310546875 182.3094024658203 1715.8143310546875"><title>Neo4j Graph Visualization</title><desc>Created using Neo4j (http://www.neo4j.com/)</desc><g class="layer links"><g class="link"><path fill="#DFE1E3" d="M 120.2584706108589 -1712.982348118971 C 120.2584706108589 -1703.8978424281606 120.2584706108589 -1703.8978424281606 120.2584706108589 -1662.982348118971 L 59.741529389141114 -1662.982348118971 C 59.741529389141114 -1672.0668538097814 59.741529389141114 -1672.0668538097814 59.741529389141114 -1712.982348118971 Z"/><text font-size="10" font-family="sans-serif" text-anchor="end" y="-1698.982348118971" x="90">15,127 </text><text font-size="10" font-family="sans-serif" text-anchor="start" y="-1698.982348118971" x="90">rows</text></g><g class="link"><path fill="#DFE1E3" d="M 120.20249458387885 -1607.6755386012169 C 120.20249458387885 -1598.5910329104065 120.20249458387886 -1598.5910329104065 120.20249458387886 -1557.6755386012169 L 59.797505416121155 -1557.6755386012169 C 59.797505416121155 -1566.7600442920273 59.797505416121155 -1566.7600442920273 59.797505416121155 -1607.6755386012169 Z"/><text font-size="10" font-family="sans-serif" text-anchor="end" y="-1593.6755386012169" x="90">14,851 </text><text font-size="10" font-family="sans-serif" text-anchor="start" y="-1593.6755386012169" x="90">rows</text></g><g class="link"><path fill="#DFE1E3" d="M 118.15848646063291 -1502.4022026409561 C 118.15848646063291 -1493.3176969501458 118.1584864606329 -1493.3176969501458 118.1584864606329 -1452.4022026409561 L 61.841513539367085 -1452.4022026409561 C 61.841513539367085 -1461.4867083317665 61.841513539367085 -1461.4867083317665 61.841513539367085 -1502.4022026409561 Z"/><text font-size="10" font-family="sans-serif" text-anchor="end" y="-1488.4022026409561" x="90">7,581 </text><text font-size="10" font-family="sans-serif" text-anchor="start" y="-1488.4022026409561" x="90">rows</text></g><g class="link"><path fill="#DFE1E3" d="M 114.13143369441441 -1434.4022026409561 C 114.13143369441441 -1424.7647504663976 114.13143369441443 -1424.7647504663976 114.13143369441443 -1384.4022026409561 L 65.86856630558559 -1384.4022026409561 C 65.86856630558559 -1394.0396548155147 65.86856630558559 -1394.0396548155147 65.86856630558559 -1434.4022026409561 Z"/><text font-size="10" font-family="sans-serif" text-anchor="end" y="-1420.4022026409561" x="90">2,015 </text><text font-size="10" font-family="sans-serif" text-anchor="start" y="-1420.4022026409561" x="90">rows</text></g><g class="link"><path fill="#DFE1E3" d="M 114.13143369441441 -1366.4022026409561 C 114.13143369441441 -1356.7647504663976 114.13143369441443 -1356.7647504663976 114.13143369441443 -1316.4022026409561 L 65.86856630558559 -1316.4022026409561 C 65.86856630558559 -1326.0396548155147 65.86856630558559 -1326.0396548155147 65.86856630558559 -1366.4022026409561 Z"/><text font-size="10" font-family="sans-serif" text-anchor="end" y="-1352.4022026409561" x="90">2,015 </text><text font-size="10" font-family="sans-serif" text-anchor="start" y="-1352.4022026409561" x="90">rows</text></g><g class="link"><path fill="#DFE1E3" d="M 103.82756238894365 -1298.4022026409561 C 103.82756238894365 -1282.205102261404 103.82756238894366 -1282.205102261404 103.82756238894366 -1248.4022026409561 L 76.17243761105635 -1248.4022026409561 C 76.17243761105635 -1264.5993030205084 76.17243761105635 -1264.5993030205084 76.17243761105635 -1298.4022026409561 Z"/><text font-size="10" font-family="sans-serif" text-anchor="end" y="-1284.4022026409561" x="90">67 </text><text font-size="10" font-family="sans-serif" text-anchor="start" y="-1284.4022026409561" x="90">rows</text></g><g class="link"><path fill="#DFE1E3" d="M 103.82756238894365 -1230.4022026409561 C 103.82756238894365 -1214.205102261404 103.82756238894366 -1214.205102261404 103.82756238894366 -1180.4022026409561 L 76.17243761105635 -1180.4022026409561 C 76.17243761105635 -1196.5993030205084 76.17243761105635 -1196.5993030205084 76.17243761105635 -1230.4022026409561 Z"/><text font-size="10" font-family="sans-serif" text-anchor="end" y="-1216.4022026409561" x="90">67 </text><text font-size="10" font-family="sans-serif" text-anchor="start" y="-1216.4022026409561" x="90">rows</text></g><g class="link"><path fill="#DFE1E3" d="M 102.57248759642741 -1145.3253857853713 C 102.57248759642741 -1128.3292799771032 102.57248759642741 -1128.3292799771032 102.57248759642741 -1095.3253857853713 L 77.42751240357259 -1095.3253857853713 C 77.42751240357259 -1112.3214915936394 77.42751240357259 -1112.3214915936394 77.42751240357259 -1145.3253857853713 Z"/><text font-size="10" font-family="sans-serif" text-anchor="end" y="-1131.3253857853713" x="90">44 </text><text font-size="10" font-family="sans-serif" text-anchor="start" y="-1131.3253857853713" x="90">rows</text></g><g class="link"><path fill="#DFE1E3" d="M 102.57248759642741 -1061.0804690633304 C 102.57248759642741 -1044.0843632550623 102.57248759642741 -1044.0843632550623 102.57248759642741 -1011.0804690633303 L 77.42751240357259 -1011.0804690633303 C 77.42751240357259 -1028.0765748715985 77.42751240357259 -1028.0765748715985 77.42751240357259 -1061.0804690633304 Z"/><text font-size="10" font-family="sans-serif" text-anchor="end" y="-1047.0804690633304" x="90">44 </text><text font-size="10" font-family="sans-serif" text-anchor="start" y="-1047.0804690633304" x="90">rows</text></g><g class="link"><path fill="#DFE1E3" d="M 106.44778113222296 -973.8158535545323 C 106.44778113222296 -959.2868362348798 106.44778113222294 -959.2868362348798 106.44778113222294 -923.8158535545323 L 73.55221886777704 -923.8158535545323 C 73.55221886777704 -938.3448708741847 73.55221886777704 -938.3448708741847 73.55221886777704 -973.8158535545323 Z"/><text font-size="10" font-family="sans-serif" text-anchor="end" y="-959.8158535545323" x="90">160 </text><text font-size="10" font-family="sans-serif" text-anchor="start" y="-959.8158535545323" x="90">rows</text></g><g class="link"><path fill="#DFE1E3" d="M 106.44778113222296 -884.928311617825 C 106.44778113222296 -870.3992942981725 106.44778113222294 -870.3992942981725 106.44778113222294 -834.928311617825 L 73.55221886777704 -834.928311617825 C 73.55221886777704 -849.4573289374774 73.55221886777704 -849.4573289374774 73.55221886777704 -884.928311617825 Z"/><text font-size="10" font-family="sans-serif" text-anchor="end" y="-870.928311617825" x="90">160 </text><text font-size="10" font-family="sans-serif" text-anchor="start" y="-870.928311617825" x="90">rows</text></g><g class="link"><path fill="#DFE1E3" d="M 113.79870706792653 -789.4799419518305 C 113.79870706792653 -779.6306694280566 113.79870706792651 -779.6306694280566 113.79870706792651 -739.4799419518305 L 66.20129293207347 -739.4799419518305 C 66.20129293207347 -749.3292144756043 66.20129293207347 -749.3292144756043 66.20129293207347 -789.4799419518305 Z"/><text font-size="10" font-family="sans-serif" text-anchor="end" y="-775.4799419518305" x="90">1,806 </text><text font-size="10" font-family="sans-serif" text-anchor="start" y="-775.4799419518305" x="90">rows</text></g><g class="link"><path fill="#DFE1E3" d="M 112.86009646005104 -691.9981161595532 C 112.86009646005104 -681.5513055642518 112.86009646005105 -681.5513055642518 112.86009646005105 -641.9981161595532 L 67.13990353994896 -641.9981161595532 C 67.13990353994896 -652.4449267548546 67.13990353994896 -652.4449267548546 67.13990353994896 -691.9981161595532 Z"/><text font-size="10" font-family="sans-serif" text-anchor="end" y="-677.9981161595532" x="90">1,326 </text><text font-size="10" font-family="sans-serif" text-anchor="start" y="-677.9981161595532" x="90">rows</text></g><g class="link"><path fill="#DFE1E3" d="M 106.1918320077647 -594 C 106.1918320077647 -579.3080404069973 106.1918320077647 -579.3080404069973 106.1918320077647 -544 L 73.8081679922353 -544 C 73.8081679922353 -558.6919595930027 73.8081679922353 -558.6919595930027 73.8081679922353 -594 Z"/><text font-size="10" font-family="sans-serif" text-anchor="end" y="-580" x="90">147 </text><text font-size="10" font-family="sans-serif" text-anchor="start" y="-580" x="90">rows</text></g><g class="link"><path fill="#DFE1E3" d="M 106.1918320077647 -526 C 106.1918320077647 -511.3080404069973 106.1918320077647 -511.3080404069973 106.1918320077647 -476 L 73.8081679922353 -476 C 73.8081679922353 -490.6919595930027 73.8081679922353 -490.6919595930027 73.8081679922353 -526 Z"/><text font-size="10" font-family="sans-serif" text-anchor="end" y="-512" x="90">147 </text><text font-size="10" font-family="sans-serif" text-anchor="start" y="-512" x="90">rows</text></g><g class="link"><path fill="#DFE1E3" d="M 102.57248759642741 -458 C 102.57248759642741 -441.00389419173183 102.57248759642741 -441.00389419173183 102.57248759642741 -408 L 77.42751240357259 -408 C 77.42751240357259 -424.99610580826817 77.42751240357259 -424.99610580826817 77.42751240357259 -458 Z"/><text font-size="10" font-family="sans-serif" text-anchor="end" y="-444" x="90">44 </text><text font-size="10" font-family="sans-serif" text-anchor="start" y="-444" x="90">rows</text></g><g class="link"><path fill="#DFE1E3" d="M 102.57248759642741 -390 C 102.57248759642741 -373.00389419173183 102.57248759642741 -373.00389419173183 102.57248759642741 -340 L 77.42751240357259 -340 C 77.42751240357259 -356.99610580826817 77.42751240357259 -356.99610580826817 77.42751240357259 -390 Z"/><text font-size="10" font-family="sans-serif" text-anchor="end" y="-376" x="90">44 </text><text font-size="10" font-family="sans-serif" text-anchor="start" y="-376" x="90">rows</text></g><g class="link"><path fill="#DFE1E3" d="M 102.57248759642741 -322 C 102.57248759642741 -305.00389419173183 102.57248759642741 -305.00389419173183 102.57248759642741 -272 L 77.42751240357259 -272 C 77.42751240357259 -288.99610580826817 77.42751240357259 -288.99610580826817 77.42751240357259 -322 Z"/><text font-size="10" font-family="sans-serif" text-anchor="end" y="-308" x="90">44 </text><text font-size="10" font-family="sans-serif" text-anchor="start" y="-308" x="90">rows</text></g><g class="link"><path fill="#DFE1E3" d="M 95.89279003035213 -254 C 95.89279003035213 -232.75146664773274 95.89279003035213 -232.75146664773274 95.89279003035213 -204 L 84.10720996964787 -204 C 84.10720996964787 -225.24853335226726 84.10720996964787 -225.24853335226726 84.10720996964787 -254 Z"/><text font-size="10" font-family="sans-serif" text-anchor="end" y="-240" x="90">4 </text><text font-size="10" font-family="sans-serif" text-anchor="start" y="-240" x="90">rows</text></g><g class="link"><path fill="#DFE1E3" d="M 95.89279003035213 -186 C 95.89279003035213 -164.75146664773274 95.89279003035213 -164.75146664773274 95.89279003035213 -136 L 84.10720996964787 -136 C 84.10720996964787 -157.24853335226726 84.10720996964787 -157.24853335226726 84.10720996964787 -186 Z"/><text font-size="10" font-family="sans-serif" text-anchor="end" y="-172" x="90">4 </text><text font-size="10" font-family="sans-serif" text-anchor="start" y="-172" x="90">rows</text></g><g class="link"><path fill="#DFE1E3" d="M 95.89279003035213 -118 C 95.89279003035213 -96.75146664773273 95.89279003035213 -96.75146664773273 95.89279003035213 -68 L 84.10720996964787 -68 C 84.10720996964787 -89.24853335226727 84.10720996964787 -89.24853335226727 84.10720996964787 -118 Z"/><text font-size="10" font-family="sans-serif" text-anchor="end" y="-104" x="90">4 </text><text font-size="10" font-family="sans-serif" text-anchor="start" y="-104" x="90">rows</text></g></g><g class="layer operators"><g class="operator" transform="translate(0,-68)"><rect class="background" fill="#ffffff" ry="4" rx="4" height="18" width="180"/><g class="header" pointer-events="all"><path class="banner" d="M 176 0 A 4 4 0 0 1 180 4 L 180 14 A 4 4 0 0 1 176 18 L 4 18 A 4 4 0 0 1 0 14 L 0 4 A 4 4 0 0 1 4 0 Z" style="fill: rgb(198, 219, 239);"/><text class="title" font-size="11" font-family="sans-serif" x="18" y="13" fill="#000000">Result</text></g><path class="cost" fill="#F25A29" d="M 176 18 A 4 4 0 0 1 176 18 L 4 18 A 4 4 0 0 1 4 18 Z"/><rect class="outline" stroke-width="1" fill="none" ry="4" rx="4" height="18" width="180" style="stroke: rgb(138, 153, 167);"/></g><g class="operator" transform="translate(0,-136)"><rect class="background" fill="#ffffff" ry="4" rx="4" height="18" width="180"/><g class="header" pointer-events="all"><path class="banner" d="M 176 0 A 4 4 0 0 1 180 4 L 180 14 A 4 4 0 0 1 176 18 L 4 18 A 4 4 0 0 1 0 14 L 0 4 A 4 4 0 0 1 4 0 Z" style="fill: rgb(198, 219, 239);"/><path class="expand" fill="#000000" d="M -5 -10 L 8.66 0 L -5 10 Z" transform="translate(9, 9) rotate(0) scale(0.5)"/><text class="title" font-size="11" font-family="sans-serif" x="18" y="13" fill="#000000">ProduceResults</text></g><path class="cost" fill="#F25A29" d="M 176 18 A 4 4 0 0 1 176 18 L 4 18 A 4 4 0 0 1 4 18 Z"/><rect class="outline" stroke-width="1" fill="none" ry="4" rx="4" height="18" width="180" style="stroke: rgb(138, 153, 167);"/></g><g class="operator" transform="translate(0,-204)"><rect class="background" fill="#ffffff" ry="4" rx="4" height="18" width="180"/><g class="header" pointer-events="all"><path class="banner" d="M 176 0 A 4 4 0 0 1 180 4 L 180 14 A 4 4 0 0 1 176 18 L 4 18 A 4 4 0 0 1 0 14 L 0 4 A 4 4 0 0 1 4 0 Z" style="fill: rgb(107, 174, 214);"/><path class="expand" fill="#FFFFFF" d="M -5 -10 L 8.66 0 L -5 10 Z" transform="translate(9, 9) rotate(0) scale(0.5)"/><text class="title" font-size="11" font-family="sans-serif" x="18" y="13" fill="#FFFFFF">Projection</text></g><path class="cost" fill="#F25A29" d="M 176 18 A 4 4 0 0 1 176 18 L 4 18 A 4 4 0 0 1 4 18 Z"/><rect class="outline" stroke-width="1" fill="none" ry="4" rx="4" height="18" width="180" style="stroke: rgb(74, 121, 149);"/></g><g class="operator" transform="translate(0,-272)"><rect class="background" fill="#ffffff" ry="4" rx="4" height="18" width="180"/><g class="header" pointer-events="all"><path class="banner" d="M 176 0 A 4 4 0 0 1 180 4 L 180 14 A 4 4 0 0 1 176 18 L 4 18 A 4 4 0 0 1 0 14 L 0 4 A 4 4 0 0 1 4 0 Z" style="fill: rgb(33, 113, 181);"/><path class="expand" fill="#FFFFFF" d="M -5 -10 L 8.66 0 L -5 10 Z" transform="translate(9, 9) rotate(0) scale(0.5)"/><text class="title" font-size="11" font-family="sans-serif" x="18" y="13" fill="#FFFFFF">Filter</text></g><path class="cost" fill="#F25A29" d="M 176 18 A 4 4 0 0 1 176 18 L 4 18 A 4 4 0 0 1 4 18 Z"/><rect class="outline" stroke-width="1" fill="none" ry="4" rx="4" height="18" width="180" style="stroke: rgb(23, 79, 126);"/></g><g class="operator" transform="translate(0,-340)"><rect class="background" fill="#ffffff" ry="4" rx="4" height="18" width="180"/><g class="header" pointer-events="all"><path class="banner" d="M 176 0 A 4 4 0 0 1 180 4 L 180 14 A 4 4 0 0 1 176 18 L 4 18 A 4 4 0 0 1 0 14 L 0 4 A 4 4 0 0 1 4 0 Z" style="fill: rgb(107, 174, 214);"/><path class="expand" fill="#FFFFFF" d="M -5 -10 L 8.66 0 L -5 10 Z" transform="translate(9, 9) rotate(0) scale(0.5)"/><text class="title" font-size="11" font-family="sans-serif" x="18" y="13" fill="#FFFFFF">Projection</text></g><path class="cost" fill="#F25A29" d="M 176 18 A 4 4 0 0 1 176 18 L 4 18 A 4 4 0 0 1 4 18 Z"/><rect class="outline" stroke-width="1" fill="none" ry="4" rx="4" height="18" width="180" style="stroke: rgb(74, 121, 149);"/></g><g class="operator" transform="translate(0,-408)"><rect class="background" fill="#ffffff" ry="4" rx="4" height="18" width="180"/><g class="header" pointer-events="all"><path class="banner" d="M 176 0 A 4 4 0 0 1 180 4 L 180 14 A 4 4 0 0 1 176 18 L 4 18 A 4 4 0 0 1 0 14 L 0 4 A 4 4 0 0 1 4 0 Z" style="fill: rgb(107, 174, 214);"/><path class="expand" fill="#FFFFFF" d="M -5 -10 L 8.66 0 L -5 10 Z" transform="translate(9, 9) rotate(0) scale(0.5)"/><text class="title" font-size="11" font-family="sans-serif" x="18" y="13" fill="#FFFFFF">Projection</text></g><path class="cost" fill="#F25A29" d="M 176 18 A 4 4 0 0 1 176 18 L 4 18 A 4 4 0 0 1 4 18 Z"/><rect class="outline" stroke-width="1" fill="none" ry="4" rx="4" height="18" width="180" style="stroke: rgb(74, 121, 149);"/></g><g class="operator" transform="translate(0,-476)"><rect class="background" fill="#ffffff" ry="4" rx="4" height="18" width="180"/><g class="header" pointer-events="all"><path class="banner" d="M 176 0 A 4 4 0 0 1 180 4 L 180 14 A 4 4 0 0 1 176 18 L 4 18 A 4 4 0 0 1 0 14 L 0 4 A 4 4 0 0 1 4 0 Z" style="fill: rgb(8, 48, 107);"/><path class="expand" fill="#FFFFFF" d="M -5 -10 L 8.66 0 L -5 10 Z" transform="translate(9, 9) rotate(0) scale(0.5)"/><text class="title" font-size="11" font-family="sans-serif" x="18" y="13" fill="#FFFFFF">EagerAggregation</text></g><path class="cost" fill="#F25A29" d="M 176 18 A 4 4 0 0 1 176 18 L 4 18 A 4 4 0 0 1 4 18 Z"/><rect class="outline" stroke-width="1" fill="none" ry="4" rx="4" height="18" width="180" style="stroke: rgb(5, 33, 74);"/></g><g class="operator" transform="translate(0,-544)"><rect class="background" fill="#ffffff" ry="4" rx="4" height="18" width="180"/><g class="header" pointer-events="all"><path class="banner" d="M 176 0 A 4 4 0 0 1 180 4 L 180 14 A 4 4 0 0 1 176 18 L 4 18 A 4 4 0 0 1 0 14 L 0 4 A 4 4 0 0 1 4 0 Z" style="fill: rgb(107, 174, 214);"/><path class="expand" fill="#FFFFFF" d="M -5 -10 L 8.66 0 L -5 10 Z" transform="translate(9, 9) rotate(0) scale(0.5)"/><text class="title" font-size="11" font-family="sans-serif" x="18" y="13" fill="#FFFFFF">Sort</text></g><path class="cost" fill="#F25A29" d="M 176 18 A 4 4 0 0 1 176 18 L 4 18 A 4 4 0 0 1 4 18 Z"/><rect class="outline" stroke-width="1" fill="none" ry="4" rx="4" height="18" width="180" style="stroke: rgb(74, 121, 149);"/></g><g class="operator" transform="translate(0,-641.9981079101562)"><rect class="background" fill="#ffffff" ry="4" rx="4" height="47.998116159553234" width="180"/><g class="header" pointer-events="all"><path class="banner" d="M 176 0 A 4 4 0 0 1 180 4 L 180 14 A 4 4 0 0 1 180 18 L 0 18 A 4 4 0 0 1 0 14 L 0 4 A 4 4 0 0 1 4 0 Z" style="fill: rgb(8, 48, 107);"/><path class="expand" fill="#FFFFFF" d="M -5 -10 L 8.66 0 L -5 10 Z" transform="translate(9, 9) rotate(0) scale(0.5)"/><text class="title" font-size="11" font-family="sans-serif" x="18" y="13" fill="#FFFFFF">EagerAggregation</text></g><path class="cost" fill="#F25A29" d="M 0 18 L 180 18 L 180 43.998116159553234 A 4 4 0 0 1 176 47.998116159553234 L 4 47.998116159553234 A 4 4 0 0 1 0 43.998116159553234 Z"/><text class="cost" font-size="10" font-family="sans-serif" fill="white" x="90" text-anchor="end" y="32">3,978 </text><text class="cost" font-size="10" font-family="sans-serif" fill="white" x="90" text-anchor="start" y="32">db hits</text><rect class="outline" stroke-width="1" fill="none" ry="4" rx="4" height="47.998116159553234" width="180" style="stroke: rgb(5, 33, 74);"/></g><g class="operator" transform="translate(0,-739.4799194335938)"><rect class="background" fill="#ffffff" ry="4" rx="4" height="47.481825792277284" width="180"/><g class="header" pointer-events="all"><path class="banner" d="M 176 0 A 4 4 0 0 1 180 4 L 180 14 A 4 4 0 0 1 180 18 L 0 18 A 4 4 0 0 1 0 14 L 0 4 A 4 4 0 0 1 4 0 Z" style="fill: rgb(33, 113, 181);"/><path class="expand" fill="#FFFFFF" d="M -5 -10 L 8.66 0 L -5 10 Z" transform="translate(9, 9) rotate(0) scale(0.5)"/><text class="title" font-size="11" font-family="sans-serif" x="18" y="13" fill="#FFFFFF">Filter</text></g><path class="cost" fill="#F25A29" d="M 0 18 L 180 18 L 180 43.481825792277284 A 4 4 0 0 1 176 47.481825792277284 L 4 47.481825792277284 A 4 4 0 0 1 0 43.481825792277284 Z"/><text class="cost" font-size="10" font-family="sans-serif" fill="white" x="90" text-anchor="end" y="32">3,449 </text><text class="cost" font-size="10" font-family="sans-serif" fill="white" x="90" text-anchor="start" y="32">db hits</text><rect class="outline" stroke-width="1" fill="none" ry="4" rx="4" height="47.481825792277284" width="180" style="stroke: rgb(23, 79, 126);"/></g><g class="operator" transform="translate(0,-834.9282836914062)"><rect class="background" fill="#ffffff" ry="4" rx="4" height="45.44836966599447" width="180"/><g class="header" pointer-events="all"><path class="banner" d="M 176 0 A 4 4 0 0 1 180 4 L 180 14 A 4 4 0 0 1 180 18 L 0 18 A 4 4 0 0 1 0 14 L 0 4 A 4 4 0 0 1 4 0 Z" style="fill: rgb(8, 81, 156);"/><path class="expand" fill="#FFFFFF" d="M -5 -10 L 8.66 0 L -5 10 Z" transform="translate(9, 9) rotate(0) scale(0.5)"/><text class="title" font-size="11" font-family="sans-serif" x="18" y="13" fill="#FFFFFF">Expand(All)</text></g><path class="cost" fill="#F25A29" d="M 0 18 L 180 18 L 180 41.44836966599447 A 4 4 0 0 1 176 45.44836966599447 L 4 45.44836966599447 A 4 4 0 0 1 0 41.44836966599447 Z"/><text class="cost" font-size="10" font-family="sans-serif" fill="white" x="90" text-anchor="end" y="32">1,966 </text><text class="cost" font-size="10" font-family="sans-serif" fill="white" x="90" text-anchor="start" y="32">db hits</text><rect class="outline" stroke-width="1" fill="none" ry="4" rx="4" height="45.44836966599447" width="180" style="stroke: rgb(5, 56, 109);"/></g><g class="operator" transform="translate(0,-923.8158569335938)"><rect class="background" fill="#ffffff" ry="4" rx="4" height="38.887541936707265" width="180"/><g class="header" pointer-events="all"><path class="banner" d="M 176 0 A 4 4 0 0 1 180 4 L 180 14 A 4 4 0 0 1 180 18 L 0 18 A 4 4 0 0 1 0 14 L 0 4 A 4 4 0 0 1 4 0 Z" style="fill: rgb(33, 113, 181);"/><path class="expand" fill="#FFFFFF" d="M -5 -10 L 8.66 0 L -5 10 Z" transform="translate(9, 9) rotate(0) scale(0.5)"/><text class="title" font-size="11" font-family="sans-serif" x="18" y="13" fill="#FFFFFF">Filter</text></g><path class="cost" fill="#F25A29" d="M 0 17.999999999999996 L 180 17.999999999999996 L 180 34.887541936707265 A 4 4 0 0 1 176 38.887541936707265 L 4 38.887541936707265 A 4 4 0 0 1 0 34.887541936707265 Z"/><text class="cost" font-size="10" font-family="sans-serif" fill="white" x="90" text-anchor="end" y="31.999999999999996">320 </text><text class="cost" font-size="10" font-family="sans-serif" fill="white" x="90" text-anchor="start" y="31.999999999999996">db hits</text><rect class="outline" stroke-width="1" fill="none" ry="4" rx="4" height="38.887541936707265" width="180" style="stroke: rgb(23, 79, 126);"/></g><g class="operator" transform="translate(0,-1011.0804443359375)"><rect class="background" fill="#ffffff" ry="4" rx="4" height="37.26461550879796" width="180"/><g class="header" pointer-events="all"><path class="banner" d="M 176 0 A 4 4 0 0 1 180 4 L 180 14 A 4 4 0 0 1 180 18 L 0 18 A 4 4 0 0 1 0 14 L 0 4 A 4 4 0 0 1 4 0 Z" style="fill: rgb(8, 81, 156);"/><path class="expand" fill="#FFFFFF" d="M -5 -10 L 8.66 0 L -5 10 Z" transform="translate(9, 9) rotate(0) scale(0.5)"/><text class="title" font-size="11" font-family="sans-serif" x="18" y="13" fill="#FFFFFF">Expand(All)</text></g><path class="cost" fill="#F25A29" d="M 0 18.000000000000004 L 180 18.000000000000004 L 180 33.26461550879796 A 4 4 0 0 1 176 37.26461550879796 L 4 37.26461550879796 A 4 4 0 0 1 0 33.26461550879796 Z"/><text class="cost" font-size="10" font-family="sans-serif" fill="white" x="90" text-anchor="end" y="32">204 </text><text class="cost" font-size="10" font-family="sans-serif" fill="white" x="90" text-anchor="start" y="32">db hits</text><rect class="outline" stroke-width="1" fill="none" ry="4" rx="4" height="37.26461550879796" width="180" style="stroke: rgb(5, 56, 109);"/></g><g class="operator" transform="translate(0,-1095.325439453125)"><rect class="background" fill="#ffffff" ry="4" rx="4" height="34.24491672204094" width="180"/><g class="header" pointer-events="all"><path class="banner" d="M 176 0 A 4 4 0 0 1 180 4 L 180 14 A 4 4 0 0 1 180 18 L 0 18 A 4 4 0 0 1 0 14 L 0 4 A 4 4 0 0 1 4 0 Z" style="fill: rgb(33, 113, 181);"/><path class="expand" fill="#FFFFFF" d="M -5 -10 L 8.66 0 L -5 10 Z" transform="translate(9, 9) rotate(0) scale(0.5)"/><text class="title" font-size="11" font-family="sans-serif" x="18" y="13" fill="#FFFFFF">Filter</text></g><path class="cost" fill="#F25A29" d="M 0 18 L 180 18 L 180 30.24491672204094 A 4 4 0 0 1 176 34.24491672204094 L 4 34.24491672204094 A 4 4 0 0 1 0 30.24491672204094 Z"/><rect class="outline" stroke-width="1" fill="none" ry="4" rx="4" height="34.24491672204094" width="180" style="stroke: rgb(23, 79, 126);"/></g><g class="operator" transform="translate(0,-1180.4022216796875)"><rect class="background" fill="#ffffff" ry="4" rx="4" height="35.076816855584845" width="180"/><g class="header" pointer-events="all"><path class="banner" d="M 176 0 A 4 4 0 0 1 180 4 L 180 14 A 4 4 0 0 1 180 18 L 0 18 A 4 4 0 0 1 0 14 L 0 4 A 4 4 0 0 1 4 0 Z" style="fill: rgb(8, 81, 156);"/><path class="expand" fill="#FFFFFF" d="M -5 -10 L 8.66 0 L -5 10 Z" transform="translate(9, 9) rotate(0) scale(0.5)"/><text class="title" font-size="11" font-family="sans-serif" x="18" y="13" fill="#FFFFFF">Expand(All)</text></g><path class="cost" fill="#F25A29" d="M 0 18 L 180 18 L 180 31.076816855584845 A 4 4 0 0 1 176 35.076816855584845 L 4 35.076816855584845 A 4 4 0 0 1 0 31.076816855584845 Z"/><text class="cost" font-size="10" font-family="sans-serif" fill="white" x="90" text-anchor="end" y="32">111 </text><text class="cost" font-size="10" font-family="sans-serif" fill="white" x="90" text-anchor="start" y="32">db hits</text><rect class="outline" stroke-width="1" fill="none" ry="4" rx="4" height="35.076816855584845" width="180" style="stroke: rgb(5, 56, 109);"/></g><g class="operator" transform="translate(0,-1248.4022216796875)"><rect class="background" fill="#ffffff" ry="4" rx="4" height="18" width="180"/><g class="header" pointer-events="all"><path class="banner" d="M 176 0 A 4 4 0 0 1 180 4 L 180 14 A 4 4 0 0 1 176 18 L 4 18 A 4 4 0 0 1 0 14 L 0 4 A 4 4 0 0 1 4 0 Z" style="fill: rgb(107, 174, 214);"/><path class="expand" fill="#FFFFFF" d="M -5 -10 L 8.66 0 L -5 10 Z" transform="translate(9, 9) rotate(0) scale(0.5)"/><text class="title" font-size="11" font-family="sans-serif" x="18" y="13" fill="#FFFFFF">Projection</text></g><path class="cost" fill="#F25A29" d="M 176 18 A 4 4 0 0 1 176 18 L 4 18 A 4 4 0 0 1 4 18 Z"/><rect class="outline" stroke-width="1" fill="none" ry="4" rx="4" height="18" width="180" style="stroke: rgb(74, 121, 149);"/></g><g class="operator" transform="translate(0,-1316.4022216796875)"><rect class="background" fill="#ffffff" ry="4" rx="4" height="18" width="180"/><g class="header" pointer-events="all"><path class="banner" d="M 176 0 A 4 4 0 0 1 180 4 L 180 14 A 4 4 0 0 1 176 18 L 4 18 A 4 4 0 0 1 0 14 L 0 4 A 4 4 0 0 1 4 0 Z" style="fill: rgb(33, 113, 181);"/><path class="expand" fill="#FFFFFF" d="M -5 -10 L 8.66 0 L -5 10 Z" transform="translate(9, 9) rotate(0) scale(0.5)"/><text class="title" font-size="11" font-family="sans-serif" x="18" y="13" fill="#FFFFFF">Filter</text></g><path class="cost" fill="#F25A29" d="M 176 18 A 4 4 0 0 1 176 18 L 4 18 A 4 4 0 0 1 4 18 Z"/><rect class="outline" stroke-width="1" fill="none" ry="4" rx="4" height="18" width="180" style="stroke: rgb(23, 79, 126);"/></g><g class="operator" transform="translate(0,-1384.4022216796875)"><rect class="background" fill="#ffffff" ry="4" rx="4" height="18" width="180"/><g class="header" pointer-events="all"><path class="banner" d="M 176 0 A 4 4 0 0 1 180 4 L 180 14 A 4 4 0 0 1 176 18 L 4 18 A 4 4 0 0 1 0 14 L 0 4 A 4 4 0 0 1 4 0 Z" style="fill: rgb(107, 174, 214);"/><path class="expand" fill="#FFFFFF" d="M -5 -10 L 8.66 0 L -5 10 Z" transform="translate(9, 9) rotate(0) scale(0.5)"/><text class="title" font-size="11" font-family="sans-serif" x="18" y="13" fill="#FFFFFF">Projection</text></g><path class="cost" fill="#F25A29" d="M 176 18 A 4 4 0 0 1 176 18 L 4 18 A 4 4 0 0 1 4 18 Z"/><rect class="outline" stroke-width="1" fill="none" ry="4" rx="4" height="18" width="180" style="stroke: rgb(74, 121, 149);"/></g><g class="operator" transform="translate(0,-1452.4022216796875)"><rect class="background" fill="#ffffff" ry="4" rx="4" height="18" width="180"/><g class="header" pointer-events="all"><path class="banner" d="M 176 0 A 4 4 0 0 1 180 4 L 180 14 A 4 4 0 0 1 176 18 L 4 18 A 4 4 0 0 1 0 14 L 0 4 A 4 4 0 0 1 4 0 Z" style="fill: rgb(8, 48, 107);"/><path class="expand" fill="#FFFFFF" d="M -5 -10 L 8.66 0 L -5 10 Z" transform="translate(9, 9) rotate(0) scale(0.5)"/><text class="title" font-size="11" font-family="sans-serif" x="18" y="13" fill="#FFFFFF">EagerAggregation</text></g><path class="cost" fill="#F25A29" d="M 176 18 A 4 4 0 0 1 176 18 L 4 18 A 4 4 0 0 1 4 18 Z"/><rect class="outline" stroke-width="1" fill="none" ry="4" rx="4" height="18" width="180" style="stroke: rgb(5, 33, 74);"/></g><g class="operator" transform="translate(0,-1557.675537109375)"><rect class="background" fill="#ffffff" ry="4" rx="4" height="55.27333596026071" width="180"/><g class="header" pointer-events="all"><path class="banner" d="M 176 0 A 4 4 0 0 1 180 4 L 180 14 A 4 4 0 0 1 180 18 L 0 18 A 4 4 0 0 1 0 14 L 0 4 A 4 4 0 0 1 4 0 Z" style="fill: rgb(33, 113, 181);"/><path class="expand" fill="#FFFFFF" d="M -5 -10 L 8.66 0 L -5 10 Z" transform="translate(9, 9) rotate(0) scale(0.5)"/><text class="title" font-size="11" font-family="sans-serif" x="18" y="13" fill="#FFFFFF">Filter</text></g><path class="cost" fill="#F25A29" d="M 0 18 L 180 18 L 180 51.27333596026071 A 4 4 0 0 1 176 55.27333596026071 L 4 55.27333596026071 A 4 4 0 0 1 0 51.27333596026071 Z"/><text class="cost" font-size="10" font-family="sans-serif" fill="white" x="90" text-anchor="end" y="32">29,702 </text><text class="cost" font-size="10" font-family="sans-serif" fill="white" x="90" text-anchor="start" y="32">db hits</text><rect class="outline" stroke-width="1" fill="none" ry="4" rx="4" height="55.27333596026071" width="180" style="stroke: rgb(23, 79, 126);"/></g><g class="operator" transform="translate(0,-1662.9822998046875)"><rect class="background" fill="#ffffff" ry="4" rx="4" height="55.30680951775419" width="180"/><g class="header" pointer-events="all"><path class="banner" d="M 176 0 A 4 4 0 0 1 180 4 L 180 14 A 4 4 0 0 1 180 18 L 0 18 A 4 4 0 0 1 0 14 L 0 4 A 4 4 0 0 1 4 0 Z" style="fill: rgb(8, 81, 156);"/><path class="expand" fill="#FFFFFF" d="M -5 -10 L 8.66 0 L -5 10 Z" transform="translate(9, 9) rotate(0) scale(0.5)"/><text class="title" font-size="11" font-family="sans-serif" x="18" y="13" fill="#FFFFFF">Expand(All)</text></g><path class="cost" fill="#F25A29" d="M 0 18 L 180 18 L 180 51.30680951775419 A 4 4 0 0 1 176 55.30680951775419 L 4 55.30680951775419 A 4 4 0 0 1 0 51.30680951775419 Z"/><text class="cost" font-size="10" font-family="sans-serif" fill="white" x="90" text-anchor="end" y="32">29,978 </text><text class="cost" font-size="10" font-family="sans-serif" fill="white" x="90" text-anchor="start" y="32">db hits</text><rect class="outline" stroke-width="1" fill="none" ry="4" rx="4" height="55.30680951775419" width="180" style="stroke: rgb(5, 56, 109);"/></g><g class="operator" transform="translate(0,-1765.8143310546875)"><rect class="background" fill="#ffffff" ry="4" rx="4" height="52.83199106685989" width="180"/><g class="header" pointer-events="all"><path class="banner" d="M 176 0 A 4 4 0 0 1 180 4 L 180 14 A 4 4 0 0 1 180 18 L 0 18 A 4 4 0 0 1 0 14 L 0 4 A 4 4 0 0 1 4 0 Z" style="fill: rgb(158, 202, 225);"/><path class="expand" fill="#000000" d="M -5 -10 L 8.66 0 L -5 10 Z" transform="translate(9, 9) rotate(0) scale(0.5)"/><text class="title" font-size="11" font-family="sans-serif" x="18" y="13" fill="#000000">NodeIndexSeek</text></g><path class="cost" fill="#F25A29" d="M 0 18 L 180 18 L 180 48.83199106685989 A 4 4 0 0 1 176 52.83199106685989 L 4 52.83199106685989 A 4 4 0 0 1 0 48.83199106685989 Z"/><text class="cost" font-size="10" font-family="sans-serif" fill="white" x="90" text-anchor="end" y="32">15,129 </text><text class="cost" font-size="10" font-family="sans-serif" fill="white" x="90" text-anchor="start" y="32">db hits</text><rect class="outline" stroke-width="1" fill="none" ry="4" rx="4" height="52.83199106685989" width="180" style="stroke: rgb(110, 141, 157);"/></g></g></svg>