<svg xmlns="http://www.w3.org/2000/svg" width="182.3094024658203" height="751.863525390625" viewBox="-1.154700756072998 -801.863525390625 182.3094024658203 751.863525390625"><title>Neo4j Graph Visualization</title><desc>Created using Neo4j (http://www.neo4j.com/)</desc><g class="layer links"><g class="link"><path fill="#DFE1E3" d="M 93.10720996964787 -779.887514697718 C 93.10720996964787 -756.8656260012934 93.10720996964787 -756.8656260012934 93.10720996964787 -729.887514697718 L 86.89279003035213 -729.887514697718 C 86.89279003035213 -752.9094033941425 86.89279003035213 -752.9094033941425 86.89279003035213 -779.887514697718 Z"/><text font-size="10" font-family="sans-serif" text-anchor="end" y="-765.887514697718" x="90">1 </text><text font-size="10" font-family="sans-serif" text-anchor="start" y="-765.887514697718" x="90">row</text></g><g class="link"><path fill="#DFE1E3" d="M 109.81270272850244 -687.6725490279857 C 109.81270272850244 -675.2857073289915 109.81270272850244 -675.2857073289915 109.81270272850244 -637.6725490279857 L 70.18729727149756 -637.6725490279857 C 70.18729727149756 -650.0593907269799 70.18729727149756 -650.0593907269799 70.18729727149756 -687.6725490279857 Z"/><text font-size="10" font-family="sans-serif" text-anchor="end" y="-673.6725490279857" x="90">486 </text><text font-size="10" font-family="sans-serif" text-anchor="start" y="-673.6725490279857" x="90">rows</text></g><g class="link"><path fill="#DFE1E3" d="M 106.9672335707341 -597.2764743511971 C 106.9672335707341 -583.0781507247054 106.9672335707341 -583.0781507247054 106.9672335707341 -547.2764743511971 L 73.03276642926592 -547.2764743511971 C 73.03276642926592 -561.4747979776887 73.0327664292659 -561.4747979776887 73.0327664292659 -597.2764743511971 Z"/><text font-size="10" font-family="sans-serif" text-anchor="end" y="-583.2764743511971" x="90">190 </text><text font-size="10" font-family="sans-serif" text-anchor="start" y="-583.2764743511971" x="90">rows</text></g><g class="link"><path fill="#DFE1E3" d="M 112.74333628084392 -502.8895567358364 C 112.74333628084392 -492.36841430182653 112.74333628084392 -492.36841430182653 112.74333628084392 -452.8895567358363 L 67.25666371915611 -452.8895567358363 C 67.25666371915611 -463.4106991698461 67.25666371915611 -463.4106991698461 67.25666371915611 -502.8895567358364 Z"/><text font-size="10" font-family="sans-serif" text-anchor="end" y="-488.8895567358364" x="90.00000000000001">1,276 </text><text font-size="10" font-family="sans-serif" text-anchor="start" y="-488.8895567358364" x="90.00000000000001">rows</text></g><g class="link"><path fill="#DFE1E3" d="M 104.96944636218286 -406.63029328831294 C 104.96944636218286 -372.1004477527514 104.96944636218285 -372.1004477527514 104.96944636218285 -356.63029328831294 L 75.03055363781715 -356.63029328831294 C 75.03055363781715 -391.1601388238745 75.03055363781716 -391.1601388238745 75.03055363781716 -406.63029328831294 Z"/><text font-size="10" font-family="sans-serif" text-anchor="end" y="-392.63029328831294" x="90.00000000000001">98 </text><text font-size="10" font-family="sans-serif" text-anchor="start" y="-392.63029328831294" x="90.00000000000001">rows</text></g><g class="link"><path fill="#DFE1E3" d="M 104.08462203811683 -322 C 104.08462203811683 -305.9665488757894 104.08462203811683 -305.9665488757894 104.08462203811683 -272 L 75.91537796188317 -272 C 75.91537796188317 -288.0334511242106 75.91537796188317 -288.0334511242106 75.91537796188317 -322 Z"/><text font-size="10" font-family="sans-serif" text-anchor="end" y="-308" x="90">73 </text><text font-size="10" font-family="sans-serif" text-anchor="start" y="-308" x="90">rows</text></g><g class="link"><path fill="#DFE1E3" d="M 96.4470587526855 -254 C 96.4470587526855 -233.10432507557508 96.4470587526855 -233.10432507557508 96.4470587526855 -204 L 83.5529412473145 -204 C 83.5529412473145 -224.89567492442492 83.5529412473145 -224.89567492442492 83.5529412473145 -254 Z"/><text font-size="10" font-family="sans-serif" text-anchor="end" y="-240" x="90">5 </text><text font-size="10" font-family="sans-serif" text-anchor="start" y="-240" x="90">rows</text></g><g class="link"><path fill="#DFE1E3" d="M 96.4470587526855 -186 C 96.4470587526855 -165.10432507557508 96.4470587526855 -165.10432507557508 96.4470587526855 -136 L 83.5529412473145 -136 C 83.5529412473145 -156.89567492442492 83.5529412473145 -156.89567492442492 83.5529412473145 -186 Z"/><text font-size="10" font-family="sans-serif" text-anchor="end" y="-172" x="90">5 </text><text font-size="10" font-family="sans-serif" text-anchor="start" y="-172" x="90">rows</text></g><g class="link"><path fill="#DFE1E3" d="M 96.4470587526855 -118 C 96.4470587526855 -97.10432507557508 96.4470587526855 -97.10432507557508 96.4470587526855 -68 L 83.5529412473145 -68 C 83.5529412473145 -88.89567492442492 83.5529412473145 -88.89567492442492 83.5529412473145 -118 Z"/><text font-size="10" font-family="sans-serif" text-anchor="end" y="-104" x="90">5 </text><text font-size="10" font-family="sans-serif" text-anchor="start" y="-104" x="90">rows</text></g></g><g class="layer operators"><g class="operator" transform="translate(0,-68)"><rect class="background" fill="#ffffff" ry="4" rx="4" height="18" width="180"/><g class="header" pointer-events="all"><path class="banner" d="M 176 0 A 4 4 0 0 1 180 4 L 180 14 A 4 4 0 0 1 176 18 L 4 18 A 4 4 0 0 1 0 14 L 0 4 A 4 4 0 0 1 4 0 Z" style="fill: rgb(198, 219, 239);"/><text class="title" font-size="11" font-family="sans-serif" x="18" y="13" fill="#000000">Result</text></g><path class="cost" fill="#F25A29" d="M 176 18 A 4 4 0 0 1 176 18 L 4 18 A 4 4 0 0 1 4 18 Z"/><rect class="outline" stroke-width="1" fill="none" ry="4" rx="4" height="18" width="180" style="stroke: rgb(138, 153, 167);"/></g><g class="operator" transform="translate(0,-136)"><rect class="background" fill="#ffffff" ry="4" rx="4" height="18" width="180"/><g class="header" pointer-events="all"><path class="banner" d="M 176 0 A 4 4 0 0 1 180 4 L 180 14 A 4 4 0 0 1 176 18 L 4 18 A 4 4 0 0 1 0 14 L 0 4 A 4 4 0 0 1 4 0 Z" style="fill: rgb(198, 219, 239);"/><path class="expand" fill="#000000" d="M -5 -10 L 8.66 0 L -5 10 Z" transform="translate(9, 9) rotate(0) scale(0.5)"/><text class="title" font-size="11" font-family="sans-serif" x="18" y="13" fill="#000000">ProduceResults</text></g><path class="cost" fill="#F25A29" d="M 176 18 A 4 4 0 0 1 176 18 L 4 18 A 4 4 0 0 1 4 18 Z"/><rect class="outline" stroke-width="1" fill="none" ry="4" rx="4" height="18" width="180" style="stroke: rgb(138, 153, 167);"/></g><g class="operator" transform="translate(0,-204)"><rect class="background" fill="#ffffff" ry="4" rx="4" height="18" width="180"/><g class="header" pointer-events="all"><path class="banner" d="M 176 0 A 4 4 0 0 1 180 4 L 180 14 A 4 4 0 0 1 176 18 L 4 18 A 4 4 0 0 1 0 14 L 0 4 A 4 4 0 0 1 4 0 Z" style="fill: rgb(107, 174, 214);"/><path class="expand" fill="#FFFFFF" d="M -5 -10 L 8.66 0 L -5 10 Z" transform="translate(9, 9) rotate(0) scale(0.5)"/><text class="title" font-size="11" font-family="sans-serif" x="18" y="13" fill="#FFFFFF">Projection</text></g><path class="cost" fill="#F25A29" d="M 176 18 A 4 4 0 0 1 176 18 L 4 18 A 4 4 0 0 1 4 18 Z"/><rect class="outline" stroke-width="1" fill="none" ry="4" rx="4" height="18" width="180" style="stroke: rgb(74, 121, 149);"/></g><g class="operator" transform="translate(0,-272)"><rect class="background" fill="#ffffff" ry="4" rx="4" height="18" width="180"/><g class="header" pointer-events="all"><path class="banner" d="M 176 0 A 4 4 0 0 1 180 4 L 180 14 A 4 4 0 0 1 176 18 L 4 18 A 4 4 0 0 1 0 14 L 0 4 A 4 4 0 0 1 4 0 Z" style="fill: rgb(107, 174, 214);"/><path class="expand" fill="#FFFFFF" d="M -5 -10 L 8.66 0 L -5 10 Z" transform="translate(9, 9) rotate(0) scale(0.5)"/><text class="title" font-size="11" font-family="sans-serif" x="18" y="13" fill="#FFFFFF">Top</text></g><path class="cost" fill="#F25A29" d="M 176 18 A 4 4 0 0 1 176 18 L 4 18 A 4 4 0 0 1 4 18 Z"/><rect class="outline" stroke-width="1" fill="none" ry="4" rx="4" height="18" width="180" style="stroke: rgb(74, 121, 149);"/></g><g class="operator" transform="translate(7.1037193156628636e-15,-356.6302795410156)"><rect class="background" fill="#ffffff" ry="4" rx="4" height="34.63029328831291" width="180"/><g class="header" pointer-events="all"><path class="banner" d="M 176 0 A 4 4 0 0 1 180 4 L 180 14 A 4 4 0 0 1 180 18 L 0 18 A 4 4 0 0 1 0 14 L 0 4 A 4 4 0 0 1 4 0 Z" style="fill: rgb(8, 48, 107);"/><path class="expand" fill="#FFFFFF" d="M -5 -10 L 8.66 0 L -5 10 Z" transform="translate(9, 9) rotate(0) scale(0.5)"/><text class="title" font-size="11" font-family="sans-serif" x="18" y="13" fill="#FFFFFF">EagerAggregation</text></g><path class="cost" fill="#F25A29" d="M 0 17.999999999999996 L 180 17.999999999999996 L 180 30.630293288312913 A 4 4 0 0 1 176 34.63029328831291 L 4 34.63029328831291 A 4 4 0 0 1 0 30.630293288312913 Z"/><rect class="outline" stroke-width="1" fill="none" ry="4" rx="4" height="34.63029328831291" width="180" style="stroke: rgb(5, 33, 74);"/></g><g class="operator" transform="translate(7.196358885587593e-15,-452.8895568847656)"><rect class="background" fill="#ffffff" ry="4" rx="4" height="46.25926344752335" width="180"/><g class="header" pointer-events="all"><path class="banner" d="M 176 0 A 4 4 0 0 1 180 4 L 180 14 A 4 4 0 0 1 180 18 L 0 18 A 4 4 0 0 1 0 14 L 0 4 A 4 4 0 0 1 4 0 Z" style="fill: rgb(33, 113, 181);"/><path class="expand" fill="#FFFFFF" d="M -5 -10 L 8.66 0 L -5 10 Z" transform="translate(9, 9) rotate(0) scale(0.5)"/><text class="title" font-size="11" font-family="sans-serif" x="18" y="13" fill="#FFFFFF">Filter</text></g><path class="cost" fill="#F25A29" d="M 0 18 L 180 18 L 180 42.25926344752335 A 4 4 0 0 1 176 46.25926344752335 L 4 46.25926344752335 A 4 4 0 0 1 0 42.25926344752335 Z"/><text class="cost" font-size="10" font-family="sans-serif" fill="white" x="90" text-anchor="end" y="32">2,460 </text><text class="cost" font-size="10" font-family="sans-serif" fill="white" x="90" text-anchor="start" y="32">db hits</text><rect class="outline" stroke-width="1" fill="none" ry="4" rx="4" height="46.25926344752335" width="180" style="stroke: rgb(23, 79, 126);"/></g><g class="operator" transform="translate(7.138910570005964e-15,-547.2764892578125)"><rect class="background" fill="#ffffff" ry="4" rx="4" height="44.38691761536069" width="180"/><g class="header" pointer-events="all"><path class="banner" d="M 176 0 A 4 4 0 0 1 180 4 L 180 14 A 4 4 0 0 1 180 18 L 0 18 A 4 4 0 0 1 0 14 L 0 4 A 4 4 0 0 1 4 0 Z" style="fill: rgb(8, 81, 156);"/><path class="expand" fill="#FFFFFF" d="M -5 -10 L 8.66 0 L -5 10 Z" transform="translate(9, 9) rotate(0) scale(0.5)"/><text class="title" font-size="11" font-family="sans-serif" x="18" y="13" fill="#FFFFFF">Expand(All)</text></g><path class="cost" fill="#F25A29" d="M 0 18 L 180 18 L 180 40.38691761536069 A 4 4 0 0 1 176 44.38691761536069 L 4 44.38691761536069 A 4 4 0 0 1 0 40.38691761536069 Z"/><text class="cost" font-size="10" font-family="sans-serif" fill="white" x="90" text-anchor="end" y="32">1,466 </text><text class="cost" font-size="10" font-family="sans-serif" fill="white" x="90" text-anchor="start" y="32">db hits</text><rect class="outline" stroke-width="1" fill="none" ry="4" rx="4" height="44.38691761536069" width="180" style="stroke: rgb(5, 56, 109);"/></g><g class="operator" transform="translate(6.463044770183392e-15,-637.6725463867188)"><rect class="background" fill="#ffffff" ry="4" rx="4" height="40.39607467678862" width="180"/><g class="header" pointer-events="all"><path class="banner" d="M 176 0 A 4 4 0 0 1 180 4 L 180 14 A 4 4 0 0 1 180 18 L 0 18 A 4 4 0 0 1 0 14 L 0 4 A 4 4 0 0 1 4 0 Z" style="fill: rgb(33, 113, 181);"/><path class="expand" fill="#FFFFFF" d="M -5 -10 L 8.66 0 L -5 10 Z" transform="translate(9, 9) rotate(0) scale(0.5)"/><text class="title" font-size="11" font-family="sans-serif" x="18" y="13" fill="#FFFFFF">Filter</text></g><path class="cost" fill="#F25A29" d="M 0 18 L 180 18 L 180 36.39607467678862 A 4 4 0 0 1 176 40.39607467678862 L 4 40.39607467678862 A 4 4 0 0 1 0 36.39607467678862 Z"/><text class="cost" font-size="10" font-family="sans-serif" fill="white" x="90" text-anchor="end" y="32">486 </text><text class="cost" font-size="10" font-family="sans-serif" fill="white" x="90" text-anchor="start" y="32">db hits</text><rect class="outline" stroke-width="1" fill="none" ry="4" rx="4" height="40.39607467678862" width="180" style="stroke: rgb(23, 79, 126);"/></g><g class="operator" transform="translate(0,-729.8875122070312)"><rect class="background" fill="#ffffff" ry="4" rx="4" height="42.21496566973224" width="180"/><g class="header" pointer-events="all"><path class="banner" d="M 176 0 A 4 4 0 0 1 180 4 L 180 14 A 4 4 0 0 1 180 18 L 0 18 A 4 4 0 0 1 0 14 L 0 4 A 4 4 0 0 1 4 0 Z" style="fill: rgb(8, 81, 156);"/><path class="expand" fill="#FFFFFF" d="M -5 -10 L 8.66 0 L -5 10 Z" transform="translate(9, 9) rotate(0) scale(0.5)"/><text class="title" font-size="11" font-family="sans-serif" x="18" y="13" fill="#FFFFFF">VarLengthExpand(All)</text></g><path class="cost" fill="#F25A29" d="M 0 18 L 180 18 L 180 38.21496566973224 A 4 4 0 0 1 176 42.21496566973224 L 4 42.21496566973224 A 4 4 0 0 1 0 38.21496566973224 Z"/><text class="cost" font-size="10" font-family="sans-serif" fill="white" x="90" text-anchor="end" y="32">804 </text><text class="cost" font-size="10" font-family="sans-serif" fill="white" x="90" text-anchor="start" y="32">db hits</text><rect class="outline" stroke-width="1" fill="none" ry="4" rx="4" height="42.21496566973224" width="180" style="stroke: rgb(5, 56, 109);"/></g><g class="operator" transform="translate(0,-801.863525390625)"><rect class="background" fill="#ffffff" ry="4" rx="4" height="21.976010455997187" width="180"/><g class="header" pointer-events="all"><path class="banner" d="M 176 0 A 4 4 0 0 1 180 4 L 180 14 A 4 4 0 0 1 179.99992806207544 18 L 0.00007193792456616777 18 A 4 4 0 0 1 0 14 L 0 4 A 4 4 0 0 1 4 0 Z" style="fill: rgb(158, 202, 225);"/><path class="expand" fill="#000000" d="M -5 -10 L 8.66 0 L -5 10 Z" transform="translate(9, 9) rotate(0) scale(0.5)"/><text class="title" font-size="11" font-family="sans-serif" x="18" y="13" fill="#000000">NodeIndexSeek</text></g><path class="cost" fill="#F25A29" d="M 179.99992806207544 18 A 4 4 0 0 1 176 21.976010455997187 L 4 21.976010455997187 A 4 4 0 0 1 0.00007193792456616777 18 Z"/><rect class="outline" stroke-width="1" fill="none" ry="4" rx="4" height="21.976010455997187" width="180" style="stroke: rgb(110, 141, 157);"/></g></g></svg>