<svg xmlns="http://www.w3.org/2000/svg" width="182.3094024658203" height="675.0116577148438" viewBox="-1.154700756072998 -725.0116577148438 182.3094024658203 675.0116577148438"><title>Neo4j Graph Visualization</title><desc>Created using Neo4j (http://www.neo4j.com/)</desc><g class="layer links"><g class="link"><path fill="#DFE1E3" d="M 93.10720996964787 -703.0356607171824 C 93.10720996964787 -680.0137720207579 93.10720996964787 -680.0137720207579 93.10720996964787 -653.0356607171824 L 86.89279003035213 -653.0356607171824 C 86.89279003035213 -676.0575494136069 86.89279003035213 -676.0575494136069 86.89279003035213 -703.0356607171824 Z"/><text font-size="10" font-family="sans-serif" text-anchor="end" y="-689.0356607171824" x="90">1 </text><text font-size="10" font-family="sans-serif" text-anchor="start" y="-689.0356607171824" x="90">row</text></g><g class="link"><path fill="#DFE1E3" d="M 93.10720996964787 -631.0596502611852 C 93.10720996964787 -608.0377615647607 93.10720996964787 -608.0377615647607 93.10720996964787 -581.0596502611852 L 86.89279003035213 -581.0596502611852 C 86.89279003035213 -604.0815389576097 86.89279003035213 -604.0815389576097 86.89279003035213 -631.0596502611852 Z"/><text font-size="10" font-family="sans-serif" text-anchor="end" y="-617.0596502611852" x="90">1 </text><text font-size="10" font-family="sans-serif" text-anchor="start" y="-617.0596502611852" x="90">row</text></g><g class="link"><path fill="#DFE1E3" d="M 93.10720996964787 -560.5510669639854 C 93.10720996964787 -537.5291782675608 93.10720996964787 -537.5291782675608 93.10720996964787 -510.5510669639853 L 86.89279003035213 -510.5510669639853 C 86.89279003035213 -533.5729556604099 86.89279003035213 -533.5729556604099 86.89279003035213 -560.5510669639854 Z"/><text font-size="10" font-family="sans-serif" text-anchor="end" y="-546.5510669639854" x="90">1 </text><text font-size="10" font-family="sans-serif" text-anchor="start" y="-546.5510669639854" x="90">row</text></g><g class="link"><path fill="#DFE1E3" d="M 95.21441993929574 -486.7263169278518 C 95.21441993929574 -465.04591976263526 95.21441993929574 -465.04591976263526 95.21441993929574 -436.7263169278518 L 84.78558006070426 -436.7263169278518 C 84.78558006070426 -458.4067140930684 84.78558006070426 -458.4067140930684 84.78558006070426 -486.7263169278518 Z"/><text font-size="10" font-family="sans-serif" text-anchor="end" y="-472.7263169278518" x="90">3 </text><text font-size="10" font-family="sans-serif" text-anchor="start" y="-472.7263169278518" x="90">rows</text></g><g class="link"><path fill="#DFE1E3" d="M 95.21441993929574 -413.70915033345216 C 95.21441993929574 -392.0287531682356 95.21441993929574 -392.0287531682356 95.21441993929574 -363.70915033345216 L 84.78558006070426 -363.70915033345216 C 84.78558006070426 -385.3895474986687 84.78558006070426 -385.3895474986687 84.78558006070426 -413.70915033345216 Z"/><text font-size="10" font-family="sans-serif" text-anchor="end" y="-399.70915033345216" x="90">3 </text><text font-size="10" font-family="sans-serif" text-anchor="start" y="-399.70915033345216" x="90">rows</text></g><g class="link"><path fill="#DFE1E3" d="M 95.21441993929574 -338.6666666666667 C 95.21441993929574 -316.9862695014501 95.21441993929574 -316.9862695014501 95.21441993929574 -288.6666666666667 L 84.78558006070426 -288.6666666666667 C 84.78558006070426 -310.34706383188325 84.78558006070426 -310.34706383188325 84.78558006070426 -338.6666666666667 Z"/><text font-size="10" font-family="sans-serif" text-anchor="end" y="-324.6666666666667" x="90">3 </text><text font-size="10" font-family="sans-serif" text-anchor="start" y="-324.6666666666667" x="90">rows</text></g><g class="link"><path fill="#DFE1E3" d="M 95.21441993929574 -265.649500072267 C 95.21441993929574 -243.96910290705046 95.21441993929574 -243.96910290705046 95.21441993929574 -215.649500072267 L 84.78558006070426 -215.649500072267 C 84.78558006070426 -237.32989723748358 84.78558006070426 -237.32989723748358 84.78558006070426 -265.649500072267 Z"/><text font-size="10" font-family="sans-serif" text-anchor="end" y="-251.64950007226702" x="90">3 </text><text font-size="10" font-family="sans-serif" text-anchor="start" y="-251.64950007226702" x="90">rows</text></g><g class="link"><path fill="#DFE1E3" d="M 95.21441993929574 -186 C 95.21441993929574 -164.31960283478344 95.21441993929574 -164.31960283478344 95.21441993929574 -136 L 84.78558006070426 -136 C 84.78558006070426 -157.68039716521656 84.78558006070426 -157.68039716521656 84.78558006070426 -186 Z"/><text font-size="10" font-family="sans-serif" text-anchor="end" y="-172" x="90">3 </text><text font-size="10" font-family="sans-serif" text-anchor="start" y="-172" x="90">rows</text></g><g class="link"><path fill="#DFE1E3" d="M 95.21441993929574 -118 C 95.21441993929574 -96.31960283478342 95.21441993929574 -96.31960283478342 95.21441993929574 -68 L 84.78558006070426 -68 C 84.78558006070426 -89.68039716521658 84.78558006070426 -89.68039716521658 84.78558006070426 -118 Z"/><text font-size="10" font-family="sans-serif" text-anchor="end" y="-104" x="90">3 </text><text font-size="10" font-family="sans-serif" text-anchor="start" y="-104" x="90">rows</text></g></g><g class="layer operators"><g class="operator" transform="translate(0,-68)"><rect class="background" fill="#ffffff" ry="4" rx="4" height="18" width="180"/><g class="header" pointer-events="all"><path class="banner" d="M 176 0 A 4 4 0 0 1 180 4 L 180 14 A 4 4 0 0 1 176 18 L 4 18 A 4 4 0 0 1 0 14 L 0 4 A 4 4 0 0 1 4 0 Z" style="fill: rgb(198, 219, 239);"/><text class="title" font-size="11" font-family="sans-serif" x="18" y="13" fill="#000000">Result</text></g><path class="cost" fill="#F25A29" d="M 176 18 A 4 4 0 0 1 176 18 L 4 18 A 4 4 0 0 1 4 18 Z"/><rect class="outline" stroke-width="1" fill="none" ry="4" rx="4" height="18" width="180" style="stroke: rgb(138, 153, 167);"/></g><g class="operator" transform="translate(0,-136)"><rect class="background" fill="#ffffff" ry="4" rx="4" height="18" width="180"/><g class="header" pointer-events="all"><path class="banner" d="M 176 0 A 4 4 0 0 1 180 4 L 180 14 A 4 4 0 0 1 176 18 L 4 18 A 4 4 0 0 1 0 14 L 0 4 A 4 4 0 0 1 4 0 Z" style="fill: rgb(198, 219, 239);"/><path class="expand" fill="#000000" d="M -5 -10 L 8.66 0 L -5 10 Z" transform="translate(9, 9) rotate(0) scale(0.5)"/><text class="title" font-size="11" font-family="sans-serif" x="18" y="13" fill="#000000">ProduceResults</text></g><path class="cost" fill="#F25A29" d="M 176 18 A 4 4 0 0 1 176 18 L 4 18 A 4 4 0 0 1 4 18 Z"/><rect class="outline" stroke-width="1" fill="none" ry="4" rx="4" height="18" width="180" style="stroke: rgb(138, 153, 167);"/></g><g class="operator" transform="translate(0,-215.64950561523438)"><rect class="background" fill="#ffffff" ry="4" rx="4" height="29.64950007226698" width="180"/><g class="header" pointer-events="all"><path class="banner" d="M 176 0 A 4 4 0 0 1 180 4 L 180 14 A 4 4 0 0 1 180 18 L 0 18 A 4 4 0 0 1 0 14 L 0 4 A 4 4 0 0 1 4 0 Z" style="fill: rgb(107, 174, 214);"/><path class="expand" fill="#FFFFFF" d="M -5 -10 L 8.66 0 L -5 10 Z" transform="translate(9, 9) rotate(0) scale(0.5)"/><text class="title" font-size="11" font-family="sans-serif" x="18" y="13" fill="#FFFFFF">Projection</text></g><path class="cost" fill="#F25A29" d="M 0 18 L 180 18 L 180 25.64950007226698 A 4 4 0 0 1 176 29.64950007226698 L 4 29.64950007226698 A 4 4 0 0 1 0 25.64950007226698 Z"/><rect class="outline" stroke-width="1" fill="none" ry="4" rx="4" height="29.64950007226698" width="180" style="stroke: rgb(74, 121, 149);"/></g><g class="operator" transform="translate(0,-288.6666564941406)"><rect class="background" fill="#ffffff" ry="4" rx="4" height="23.017166594399686" width="180"/><g class="header" pointer-events="all"><path class="banner" d="M 176 0 A 4 4 0 0 1 180 4 L 180 14 A 4 4 0 0 1 180 18 L 0 18 A 4 4 0 0 1 0 14 L 0 4 A 4 4 0 0 1 4 0 Z" style="fill: rgb(33, 113, 181);"/><path class="expand" fill="#FFFFFF" d="M -5 -10 L 8.66 0 L -5 10 Z" transform="translate(9, 9) rotate(0) scale(0.5)"/><text class="title" font-size="11" font-family="sans-serif" x="18" y="13" fill="#FFFFFF">Filter</text></g><path class="cost" fill="#F25A29" d="M 0 18 L 180 18 L 180 19.017166594399686 A 4 4 0 0 1 176 23.017166594399686 L 4 23.017166594399686 A 4 4 0 0 1 0 19.017166594399686 Z"/><rect class="outline" stroke-width="1" fill="none" ry="4" rx="4" height="23.017166594399686" width="180" style="stroke: rgb(23, 79, 126);"/></g><g class="operator" transform="translate(0,-363.7091369628906)"><rect class="background" fill="#ffffff" ry="4" rx="4" height="25.042483666785472" width="180"/><g class="header" pointer-events="all"><path class="banner" d="M 176 0 A 4 4 0 0 1 180 4 L 180 14 A 4 4 0 0 1 180 18 L 0 18 A 4 4 0 0 1 0 14 L 0 4 A 4 4 0 0 1 4 0 Z" style="fill: rgb(8, 81, 156);"/><path class="expand" fill="#FFFFFF" d="M -5 -10 L 8.66 0 L -5 10 Z" transform="translate(9, 9) rotate(0) scale(0.5)"/><text class="title" font-size="11" font-family="sans-serif" x="18" y="13" fill="#FFFFFF">Expand(All)</text></g><path class="cost" fill="#F25A29" d="M 0 18 L 180 18 L 180 21.042483666785472 A 4 4 0 0 1 176 25.042483666785472 L 4 25.042483666785472 A 4 4 0 0 1 0 21.042483666785472 Z"/><rect class="outline" stroke-width="1" fill="none" ry="4" rx="4" height="25.042483666785472" width="180" style="stroke: rgb(5, 56, 109);"/></g><g class="operator" transform="translate(0,-436.726318359375)"><rect class="background" fill="#ffffff" ry="4" rx="4" height="23.017166594399686" width="180"/><g class="header" pointer-events="all"><path class="banner" d="M 176 0 A 4 4 0 0 1 180 4 L 180 14 A 4 4 0 0 1 180 18 L 0 18 A 4 4 0 0 1 0 14 L 0 4 A 4 4 0 0 1 4 0 Z" style="fill: rgb(33, 113, 181);"/><path class="expand" fill="#FFFFFF" d="M -5 -10 L 8.66 0 L -5 10 Z" transform="translate(9, 9) rotate(0) scale(0.5)"/><text class="title" font-size="11" font-family="sans-serif" x="18" y="13" fill="#FFFFFF">Filter</text></g><path class="cost" fill="#F25A29" d="M 0 18 L 180 18 L 180 19.017166594399686 A 4 4 0 0 1 176 23.017166594399686 L 4 23.017166594399686 A 4 4 0 0 1 0 19.017166594399686 Z"/><rect class="outline" stroke-width="1" fill="none" ry="4" rx="4" height="23.017166594399686" width="180" style="stroke: rgb(23, 79, 126);"/></g><g class="operator" transform="translate(0,-510.5510559082031)"><rect class="background" fill="#ffffff" ry="4" rx="4" height="23.82475003613349" width="180"/><g class="header" pointer-events="all"><path class="banner" d="M 176 0 A 4 4 0 0 1 180 4 L 180 14 A 4 4 0 0 1 180 18 L 0 18 A 4 4 0 0 1 0 14 L 0 4 A 4 4 0 0 1 4 0 Z" style="fill: rgb(8, 81, 156);"/><path class="expand" fill="#FFFFFF" d="M -5 -10 L 8.66 0 L -5 10 Z" transform="translate(9, 9) rotate(0) scale(0.5)"/><text class="title" font-size="11" font-family="sans-serif" x="18" y="13" fill="#FFFFFF">Expand(All)</text></g><path class="cost" fill="#F25A29" d="M 0 18 L 180 18 L 180 19.82475003613349 A 4 4 0 0 1 176 23.82475003613349 L 4 23.82475003613349 A 4 4 0 0 1 0 19.82475003613349 Z"/><rect class="outline" stroke-width="1" fill="none" ry="4" rx="4" height="23.82475003613349" width="180" style="stroke: rgb(5, 56, 109);"/></g><g class="operator" transform="translate(0,-581.0596313476562)"><rect class="background" fill="#ffffff" ry="4" rx="4" height="20.50858329719984" width="180"/><g class="header" pointer-events="all"><path class="banner" d="M 176 0 A 4 4 0 0 1 180 4 L 180 14 A 4 4 0 0 1 179.7115598093805 18 L 0.2884401906194878 18 A 4 4 0 0 1 0 14 L 0 4 A 4 4 0 0 1 4 0 Z" style="fill: rgb(33, 113, 181);"/><path class="expand" fill="#FFFFFF" d="M -5 -10 L 8.66 0 L -5 10 Z" transform="translate(9, 9) rotate(0) scale(0.5)"/><text class="title" font-size="11" font-family="sans-serif" x="18" y="13" fill="#FFFFFF">Filter</text></g><path class="cost" fill="#F25A29" d="M 179.7115598093805 18 A 4 4 0 0 1 176 20.50858329719984 L 4 20.50858329719984 A 4 4 0 0 1 0.28844019061948734 18 Z"/><rect class="outline" stroke-width="1" fill="none" ry="4" rx="4" height="20.50858329719984" width="180" style="stroke: rgb(23, 79, 126);"/></g><g class="operator" transform="translate(0,-653.03564453125)"><rect class="background" fill="#ffffff" ry="4" rx="4" height="21.976010455997187" width="180"/><g class="header" pointer-events="all"><path class="banner" d="M 176 0 A 4 4 0 0 1 180 4 L 180 14 A 4 4 0 0 1 179.99992806207544 18 L 0.00007193792456616777 18 A 4 4 0 0 1 0 14 L 0 4 A 4 4 0 0 1 4 0 Z" style="fill: rgb(8, 81, 156);"/><path class="expand" fill="#FFFFFF" d="M -5 -10 L 8.66 0 L -5 10 Z" transform="translate(9, 9) rotate(0) scale(0.5)"/><text class="title" font-size="11" font-family="sans-serif" x="18" y="13" fill="#FFFFFF">Expand(All)</text></g><path class="cost" fill="#F25A29" d="M 179.99992806207544 18 A 4 4 0 0 1 176 21.976010455997187 L 4 21.976010455997187 A 4 4 0 0 1 0.00007193792456616777 18 Z"/><rect class="outline" stroke-width="1" fill="none" ry="4" rx="4" height="21.976010455997187" width="180" style="stroke: rgb(5, 56, 109);"/></g><g class="operator" transform="translate(0,-725.0116577148438)"><rect class="background" fill="#ffffff" ry="4" rx="4" height="21.976010455997187" width="180"/><g class="header" pointer-events="all"><path class="banner" d="M 176 0 A 4 4 0 0 1 180 4 L 180 14 A 4 4 0 0 1 179.99992806207544 18 L 0.00007193792456616777 18 A 4 4 0 0 1 0 14 L 0 4 A 4 4 0 0 1 4 0 Z" style="fill: rgb(158, 202, 225);"/><path class="expand" fill="#000000" d="M -5 -10 L 8.66 0 L -5 10 Z" transform="translate(9, 9) rotate(0) scale(0.5)"/><text class="title" font-size="11" font-family="sans-serif" x="18" y="13" fill="#000000">NodeIndexSeek</text></g><path class="cost" fill="#F25A29" d="M 179.99992806207544 18 A 4 4 0 0 1 176 21.976010455997187 L 4 21.976010455997187 A 4 4 0 0 1 0.00007193792456616777 18 Z"/><rect class="outline" stroke-width="1" fill="none" ry="4" rx="4" height="21.976010455997187" width="180" style="stroke: rgb(110, 141, 157);"/></g></g></svg>